<svg id="Layer_1" data-name="Layer 1" xmlns="http://www.w3.org/2000/svg" viewBox="0 0 189.997 225.222"><defs><style>.cls-1{fill:#fff}</style></defs><path class="cls-1" d="M151.766 75.864v93.65a8.252 8.252 0 0 1-8.25 8.25h-10.11v31.83a14.8 14.8 0 0 1-29.6 0v-31.83h-17.62v31.83a14.8 14.8 0 0 1-29.6 0v-31.83h-10.08a8.245 8.245 0 0 1-8.25-8.25v-93.65Z"/><rect class="cls-1" x=".39" y="74.418" width="29.596" height="94.109" rx="14.798"/><rect class="cls-1" x="160.01" y="74.418" width="29.596" height="94.109" rx="14.798"/><path class="cls-1" d="M37.316 65.104h113.75a56.81 56.81 0 0 0-22.71-44.79l11.66-11.66a5.105 5.105 0 0 0-7.22-7.22l-13.37 13.37a56.954 56.954 0 0 0-49.45-.5l-12.87-12.87a5.105 5.105 0 0 0-7.22 7.22l11.02 11.02a56.803 56.803 0 0 0-23.59 45.43Zm81.29-30.26a6.82 6.82 0 1 1-6.81 6.82 6.816 6.816 0 0 1 6.81-6.82Zm-40.4 6.82a6.82 6.82 0 1 1-6.82-6.82 6.822 6.822 0 0 1 6.82 6.82Z"/></svg>