<svg id="Layer_1" data-name="Layer 1" xmlns="http://www.w3.org/2000/svg" viewBox="0 0 500 500"><defs><style>.cls-1{fill:#f4c745}.cls-2{fill:#4f4f4f}.cls-3{fill:#e9ebef}.cls-4{fill:#6097c9}.cls-5{fill:#64c2d1}.cls-6{fill:none;stroke:#6097c9;stroke-miterlimit:10;stroke-width:9px}</style></defs><path class="cls-1" d="M82.8 358.1L44.7 239a8.2 8.2 0 010-4.9L78 121.8a8.3 8.3 0 012-3.4l38.8-39.2a8.1 8.1 0 018.5-1.9l23.6 8.2a3.2 3.2 0 011.9 3.1l-17.4 142.3a2.9 2.9 0 004.9 2.4l25.7-25.9a8.1 8.1 0 002.2-7.3l-5.3-27.7a2.8 2.8 0 012.3-3.4l9.2-1.7a2.9 2.9 0 013.3 2.1l12.2 48.1a9.2 9.2 0 01.2 3.3l-25.8 176.9a2.9 2.9 0 01-4.2 2.1L87 362.9a8.3 8.3 0 01-4.2-4.8z"/><rect class="cls-2" x="87" y="84.6" width="118.1" height="211.77" rx="14.4" transform="rotate(-7.5 146.1105 190.3832)"/><rect class="cls-3" x="99.3" y="97.2" width="94.1" height="184.1" rx="14.4" transform="rotate(-7.5 146.2105 188.8575)"/><path class="cls-1" d="M84.9 239.5l62.4-14.5a9 9 0 003.8-5.8l8.7-45.7a9.4 9.4 0 017.4-7.3 9.3 9.3 0 0110.6 6.8l10.7 41.8a8.8 8.8 0 01.2 3.6l-19.4 154.1c-1.2 8.5-15.6 11.3-20.2 4.1l-62.7-98.5c-2.6-4.2-5.6-35.8-1.5-38.6z"/><path class="cls-4" d="M58.8 361h127.7v138.95H58.8z"/><path class="cls-5" d="M106.7 361h79.8v138.95h-79.8z"/><path class="cls-1" d="M85.5 185.5l19.1 33.2a3.5 3.5 0 002.4 1.7l32.3 6.2a3.6 3.6 0 011.8 6.1l-53.8 52.8a3.5 3.5 0 01-6-2.4l-2.5-95.7a3.6 3.6 0 016.7-1.9zM403.6 142.3l38.1 119.1a7.9 7.9 0 010 4.8l-33.2 112.3a8.4 8.4 0 01-2.1 3.5l-38.8 39.1a8.3 8.3 0 01-8.5 2l-23.5-8.3a2.8 2.8 0 01-1.9-3.1L351 269.4a2.9 2.9 0 00-4.9-2.4l-25.6 25.9a8.3 8.3 0 00-2.3 7.3l5.3 27.8a2.9 2.9 0 01-2.3 3.4l-9.1 1.7a2.9 2.9 0 01-3.3-2.2l-12.3-48.1a8.6 8.6 0 01-.1-3.2l25.8-176.9a2.8 2.8 0 014.1-2.2l73.2 36.9a8.7 8.7 0 014.1 4.9z"/><rect class="cls-2" x="281.4" y="204" width="118.1" height="211.77" rx="14.4" transform="rotate(172.5 340.3784 309.94)"/><rect class="cls-3" x="293.1" y="219" width="94.1" height="184.1" rx="14.4" transform="rotate(171.9 340.4003 311.2573)"/><path class="cls-1" d="M401.5 260.8l-62.4 14.5a9.5 9.5 0 00-3.8 5.8l-8.7 45.7a9.3 9.3 0 01-7.4 7.3 9.2 9.2 0 01-10.6-6.7l-10.7-41.8a11.4 11.4 0 01-.2-3.7l19.4-154.1c1.2-8.4 15.7-11.3 20.2-4.1l62.7 98.5c2.7 4.2 5.6 35.8 1.5 38.6z"/><path class="cls-4" transform="rotate(180 363.75 69.85)" d="M299.9.4h127.7v138.95H299.9z"/><path class="cls-5" transform="rotate(180 339.8 69.85)" d="M299.9.4h79.8v138.95h-79.8z"/><path class="cls-1" d="M400.9 314.9l-19-33.3a3.7 3.7 0 00-2.5-1.7l-32.3-6.2a3.5 3.5 0 01-1.8-6l53.8-52.9a3.6 3.6 0 016.1 2.5l2.4 95.7a3.6 3.6 0 01-6.7 1.9z"/><path class="cls-6" d="M142.4 131.4a50 50 0 0114.3-4.2"/><path d="M166.5 126.6c26.2.8 66.2 21.9 78.3 136.5 13.5 127.1 66 127.4 94 117.8" stroke-dasharray="29.26 9.75" fill="none" stroke="#6097c9" stroke-miterlimit="10" stroke-width="9"/><path class="cls-6" d="M343.3 379.2a71.9 71.9 0 0013.3-7"/></svg>