<svg id="Layer_1" data-name="Layer 1" xmlns="http://www.w3.org/2000/svg" viewBox="0 0 300 52.6">
  <defs>
    <style>
      .cls-1, .cls-2 {
        fill: #1d4485;
      }

      .cls-2 {
        fill-rule: evenodd;
      }
    </style>
  </defs>
  <g>
    <path class="cls-1" d="M113.2,26.3a8.8,8.8,0,0,1,2.4-6.6,8.9,8.9,0,0,1,6.6-2.4,9.4,9.4,0,0,1,6.7,2.3,8.9,8.9,0,0,1,2.4,6.6,10.6,10.6,0,0,1-1.1,5,7,7,0,0,1-2.9,3,10.1,10.1,0,0,1-4.9,1.1,11.9,11.9,0,0,1-4.9-.9,8.9,8.9,0,0,1-3.1-3A10.1,10.1,0,0,1,113.2,26.3Zm5.4,0c0,1.8.3,3.1,1,3.8a3.1,3.1,0,0,0,2.6,1.2,3.2,3.2,0,0,0,2.7-1.2c.7-.7,1-2.1,1-4a5.9,5.9,0,0,0-1-3.6,3.3,3.3,0,0,0-2.7-1.1,3,3,0,0,0-2.6,1.1A5.8,5.8,0,0,0,118.6,26.3Z"/>
    <path class="cls-1" d="M133.6,17.6h5l6.6,9.6V17.6h5V35h-5l-6.6-9.6V35h-5Z"/>
    <path class="cls-1" d="M164.6,17.6h5.3V28a7.1,7.1,0,0,1-.5,2.9,6.1,6.1,0,0,1-1.5,2.4,6.4,6.4,0,0,1-2.1,1.4,10.8,10.8,0,0,1-3.8.6l-2.8-.2a6.1,6.1,0,0,1-2.5-.7,4.3,4.3,0,0,1-1.8-1.5,4.7,4.7,0,0,1-1.2-2,11.8,11.8,0,0,1-.5-2.9V17.6h5.4V28.2a2.9,2.9,0,0,0,.8,2.2,2.6,2.6,0,0,0,2.2.8,2.9,2.9,0,0,0,2.2-.8,2.9,2.9,0,0,0,.8-2.2Z"/>
    <path class="cls-1" d="M172.9,17.6h5l6.6,9.6V17.6h5.1V35h-5.1L178,25.4V35h-5.1Z"/>
    <path class="cls-1" d="M206.4,28.7V25.1h8.3v7.4a17.1,17.1,0,0,1-4.2,2.2,14.6,14.6,0,0,1-4.4.6,10.3,10.3,0,0,1-5-1.1,7.1,7.1,0,0,1-3.1-3.1,10.6,10.6,0,0,1-1.1-4.8,10,10,0,0,1,1.2-5,8.4,8.4,0,0,1,3.5-3.2,12.1,12.1,0,0,1,4.7-.8,15.6,15.6,0,0,1,4.4.5,6.3,6.3,0,0,1,2.3,1.6,8.4,8.4,0,0,1,1.5,2.8l-5.2.9a4.2,4.2,0,0,0-1.1-1.5,3.9,3.9,0,0,0-2-.5,3.5,3.5,0,0,0-2.8,1.2,6.2,6.2,0,0,0-1.1,3.9,6.3,6.3,0,0,0,1.1,4.1,3.8,3.8,0,0,0,3,1.2,5.1,5.1,0,0,0,1.7-.3,5.3,5.3,0,0,0,1.9-.9V28.7Z"/>
    <path class="cls-1" d="M217.3,35V17.6h9a12.1,12.1,0,0,1,3.8.4,4.4,4.4,0,0,1,2.2,1.6,5.1,5.1,0,0,1,.8,2.8,4.9,4.9,0,0,1-.6,2.5,5.5,5.5,0,0,1-1.7,1.7,6.9,6.9,0,0,1-1.9.7,3.7,3.7,0,0,1,1.4.7c.2.1.4.4.8.9a3.3,3.3,0,0,1,.8,1.1l2.6,5h-6.1l-2.9-5.3a4.8,4.8,0,0,0-.9-1.4,3.3,3.3,0,0,0-1.4-.4h-.4V35Zm5.5-10.4H225l1.5-.2a1.4,1.4,0,0,0,.8-.5,1.5,1.5,0,0,0,.4-1.1,1.4,1.4,0,0,0-.6-1.2,3,3,0,0,0-2-.5h-2.3Z"/>
    <path class="cls-1" d="M234.5,26.3a8.8,8.8,0,0,1,2.4-6.6,8.9,8.9,0,0,1,6.6-2.4,9.4,9.4,0,0,1,6.7,2.3,8.9,8.9,0,0,1,2.4,6.6,10.6,10.6,0,0,1-1.1,5,7,7,0,0,1-2.9,3,10.4,10.4,0,0,1-4.9,1.1,11.6,11.6,0,0,1-4.9-.9,8.1,8.1,0,0,1-3.1-3A10.1,10.1,0,0,1,234.5,26.3Zm5.4,0c0,1.8.3,3.1,1,3.8a3.1,3.1,0,0,0,2.6,1.2,3.2,3.2,0,0,0,2.7-1.2c.7-.7,1-2.1,1-4a5.9,5.9,0,0,0-1-3.6,3.3,3.3,0,0,0-2.7-1.1,3,3,0,0,0-2.6,1.1A5.8,5.8,0,0,0,239.9,26.3Z"/>
    <path class="cls-1" d="M266.2,17.6h5.4V28a9.3,9.3,0,0,1-.5,2.9,7.5,7.5,0,0,1-1.5,2.4,5.9,5.9,0,0,1-2.2,1.4,10.4,10.4,0,0,1-3.8.6l-2.7-.2a5.7,5.7,0,0,1-2.5-.7,5.3,5.3,0,0,1-1.9-1.5,4.4,4.4,0,0,1-1.1-2,8.4,8.4,0,0,1-.5-2.9V17.6h5.3V28.2a2.9,2.9,0,0,0,.8,2.2,3.4,3.4,0,0,0,4.4,0,2.9,2.9,0,0,0,.8-2.2Z"/>
    <path class="cls-1" d="M274.5,17.6h8.9c2,0,3.4.4,4.4,1.4a5,5,0,0,1,1.5,3.9,5.7,5.7,0,0,1-1.6,4.2,7.5,7.5,0,0,1-4.9,1.4h-2.9V35h-5.4Zm5.4,7.4h1.3a4,4,0,0,0,2.2-.5,2,2,0,0,0,.6-1.4,2.2,2.2,0,0,0-.5-1.4,2.9,2.9,0,0,0-2.1-.6h-1.5Z"/>
    <g>
      <path class="cls-1" d="M107.2,27.9a6.5,6.5,0,0,1-1.2,2.5,2.9,2.9,0,0,1-2.3.9,3.1,3.1,0,0,1-2.5-1.1c-.6-.7-.9-2.1-.9-4a11.1,11.1,0,0,1,.2-1.9H95.1a12.3,12.3,0,0,0-.2,2,10.6,10.6,0,0,0,1.3,5.3,8,8,0,0,0,3.2,2.9,11.9,11.9,0,0,0,4.6.8,8.3,8.3,0,0,0,3.8-.7,5.7,5.7,0,0,0,2.6-2,8.4,8.4,0,0,0,1.5-3.3Z"/>
      <path class="cls-1" d="M102.5,21.6a3.4,3.4,0,0,1,2.8,0,3.6,3.6,0,0,1,1.1,1,3.3,3.3,0,0,1,.6,1.2l4.7-1.1a7.8,7.8,0,0,0-2.8-4.1,8.7,8.7,0,0,0-5.2-1.3h-1.2Z"/>
    </g>
  </g>
  <g>
    <path class="cls-2" d="M61.3,33.7a7,7,0,1,0-7-7,6.9,6.9,0,0,0,7,7Z"/>
    <path class="cls-2" d="M27.6,37.7a11,11,0,1,1,9.5-16.5l5.1-2.9a16.9,16.9,0,1,0,0,16.9l-5.1-3a11,11,0,0,1-9.5,5.5Z"/>
    <path class="cls-2" d="M33.2,30.8c3.2-4.5,10.4-3,12.3,1.9a16.9,16.9,0,1,0,0-11.9,7.2,7.2,0,0,1-12.4,1.7,7.2,7.2,0,0,0-5.5-2.7,7,7,0,1,0,5.6,11Zm28.1,6.9a11,11,0,1,1,10.9-11,11,11,0,0,1-10.9,11Z"/>
  </g>
</svg>
