<svg xmlns="http://www.w3.org/2000/svg" xmlns:xlink="http://www.w3.org/1999/xlink" viewBox="0 0 1535.2 1080.8"><defs><radialGradient id="radial-gradient" cx="932.1" cy="858.21" r="24.77" gradientUnits="userSpaceOnUse"><stop offset="0" stop-color="#fff" stop-opacity=".5"/><stop offset="1" stop-color="#e9ebef" stop-opacity="0"/></radialGradient><radialGradient id="radial-gradient-2" cx="434.82" cy="701.01" r="24.77" xlink:href="#radial-gradient"/><radialGradient id="radial-gradient-3" cx="1183.96" cy="457.75" r="24.77" xlink:href="#radial-gradient"/><radialGradient id="radial-gradient-4" cx="743.38" cy="201.64" r="24.77" xlink:href="#radial-gradient"/><style>.cls-3{fill:#184186}.cls-4{fill:#e9ebef}.cls-5{fill:#6097c9}.cls-8{fill:#fff}.cls-9{fill:#64c2d1}</style></defs><g id="COmputer"><path d="M661.4 1073.2c-62.7 0-125-12-180.1-34.8-63.2-26.3-113.7-65.6-146-113.9-28.1-42.2-31.9-76.1-34.9-103.3-2.5-22.6-5.3-48.2-26.1-101.3-9.7-24.6-18.3-42.5-26-58.2-15.2-31.4-29.5-61-36.8-110.2-9.7-65-2.7-131.7 21-198.3a425.3 425.3 0 0162-114.7 465 465 0 0176.7-79c50.4-41.2 97.1-62.8 114.9-70.2C570.7 54.1 661.5 48.9 708 48.9h4.8c16.4.1 29.9.8 40.8 1.4 9.2.5 16.5.9 23.9.9a210.2 210.2 0 0025.5-1.6c29-3.6 41.7-9.2 59.3-17.1S904.4 13.7 938.5 9a262.7 262.7 0 0134.4-2.3c58.2 0 117.5 19.7 176.1 58.6 48.3 32 86.9 71.2 110.8 98.5 26.1 29.8 73.9 93.7 100.9 187.3 35.6 123.9 12.9 226.1 3.2 269.8-.3 1.5-.7 3.1-1 4.9v.2c-7.1 32.4-21.9 99.8-53.5 166.7-22.2 47-49.2 85.8-80 115.1-32.5 31-69.8 52-110.7 62.4-18.4 4.8-36.5 6.9-57.1 6.9-11.4 0-22.3-.6-31.9-1.3s-18-1.1-27.1-1.1a214.8 214.8 0 00-47.9 5.5c-32.7 7.2-47.2 16.1-69.1 29.6-19.5 11.9-43.6 26.7-78.8 39.3-43.9 15.8-94.2 24.1-145.4 24.1z" fill="#46679e"/><path d="M661.4 1026.8c-56.7 0-112.8-10.8-162.3-31.3-54.8-22.7-98.1-56.2-125.2-96.8-21.9-32.7-24.5-56.9-27.4-82.6s-5.9-54.3-29.1-113.2c-10.3-26.3-19.3-45-27.3-61.5-14.2-29.3-26.5-54.5-32.7-96.7-8.6-57.4-2.3-116.7 18.8-176 56.1-158.3 199.5-224.8 227.7-236.5 77.2-32.1 161-36.9 204.1-36.9h4.6c15.2 0 27.6.7 38.5 1.3s17.7 1 26.4 1a243 243 0 0031.1-2c35.9-4.3 53.7-12.3 72.6-20.7 16.9-7.6 36.1-16.1 63.7-19.9a200.6 200.6 0 0128-1.9c111.4 0 205.7 88.5 252 141.3 23.6 26.8 66.7 84.6 91.2 169.6 32.3 112.5 11.5 206.6 2.5 246.8-.3 1.6-.7 3.4-1.1 5.3-6.7 30.7-20.8 94.6-50.1 156.8-39.8 84.1-93.7 135.3-160.3 152.4a179.8 179.8 0 01-45.6 5.5c-9.9 0-19.6-.7-28.9-1.3s-19.5-1.2-30.1-1.2a262.5 262.5 0 00-57.9 6.6c-40.3 8.9-60.3 21.1-83.4 35.3-18.5 11.4-39.5 24.2-70.2 35.3-38.8 14-83.7 21.3-129.6 21.3z" fill="#2a5090"/><path class="cls-3" d="M521.7 175c-16.6 6.9-150.7 65.2-201.8 209.2-7.1 20.1-27.6 80-16.7 153.7 8.4 56.3 28.2 73.7 57.4 148.1 48.1 122.3 18.9 137.6 51.9 186.9 64.6 96.7 239.8 133.2 362.8 88.9 63.3-22.7 77.5-54.1 159.3-72.2s113.9 2.8 161-9.3c127.5-32.6 166.5-229 177.7-279.5 9.5-42.7 26.7-124.9-1.8-224-24.4-84.9-69.8-138.5-81.5-151.8-18.3-20.9-122.8-140.1-238.8-124.1-48.2 6.7-61 31.5-137 40.8-42.3 5.1-61 .2-101.8 0-19.4-.1-109.4-.5-190.7 33.3z"/><path class="cls-4" d="M538.8 310.3h422.1a17.2 17.2 0 0117.2 17.2v254.3H523.9V325.3a14.9 14.9 0 0114.9-14.9z"/><rect class="cls-5" x="539.7" y="323.4" width="423.3" height="221.59" rx="14.4"/><path fill="#dda417" d="M941.9 246.4h82.3v108.67h-82.3z"/><rect x="585.2" y="358.3" width="325.7" height="157.89" rx="9.6" stroke-width="2.16" stroke="#4f4f4f" stroke-miterlimit="10" fill="#e9ebef"/><path class="cls-8" transform="rotate(-.1 572.8076 172.3873)" d="M951.1 259.3h63v1.99h-63zM951.1 290.5h63v1.99h-63zM951.1 274.9h63v1.99h-63zM951.1 306.2h63v1.99h-63zM951.1 321.8h63v1.99h-63z"/><path class="cls-8" transform="rotate(-.1 572.7576 229.683)" d="M951.1 337.4h63v1.99h-63z"/><rect class="cls-9" x="610.4" y="402.1" width="51" height="29.73" rx="4"/><rect class="cls-9" x="834.7" y="402.1" width="51" height="29.73" rx="4"/><rect class="cls-9" x="666.8" y="402.1" width="51" height="29.73" rx="4"/><rect class="cls-9" x="721.6" y="402.1" width="51" height="29.73" rx="4"/><rect class="cls-9" x="778.2" y="402.1" width="51" height="29.73" rx="4"/><rect class="cls-9" x="610.7" y="437.3" width="51" height="29.73" rx="4"/><rect class="cls-9" x="834.7" y="437.3" width="51" height="29.73" rx="4"/><rect class="cls-9" x="667.4" y="437.3" width="51" height="29.73" rx="4"/><rect class="cls-9" x="722.2" y="437.3" width="51" height="29.73" rx="4"/><rect class="cls-9" x="778.7" y="437.3" width="51" height="29.73" rx="4"/><rect class="cls-9" x="611" y="472.6" width="51" height="29.73" rx="4"/><rect class="cls-9" x="834.7" y="472.6" width="51" height="29.73" rx="4"/><rect class="cls-9" x="667.4" y="472.6" width="51" height="29.73" rx="4"/><rect class="cls-9" x="722.2" y="472.6" width="51" height="29.73" rx="4"/><rect class="cls-9" x="778.7" y="472.6" width="51" height="29.73" rx="4"/><path class="cls-9" d="M637.7 368.4h220.8v20.46H637.7z"/><path class="cls-9" transform="rotate(20.7 1073.9926 375.3234)" d="M1010.2 311.2h132v130.78h-132z"/><path class="cls-5" transform="rotate(20.7 1074.864 375.4471)" d="M1027.4 327.5h99.3v98.4h-99.3z"/><g><path class="cls-4" d="M565.1 599.2l368.5 1.4 78.1 171.5-518.2 1.9 71.6-174.8z"/><path class="cls-4" d="M1013.2 768.8H494.9c-11.2 0-18.1-8.2-15.5-18.4l44.5-171.2h453.9l50.3 171.1c2.9 10.3-3.7 18.5-14.9 18.5z"/><path class="cls-5" d="M976.9 724.7H527.8l28-129.5 388.9.1 32.2 129.4z"/><path class="cls-4" d="M586.6 637.4h-28.9a2.7 2.7 0 01-2.7-3.5c1.8-8.5 3.6-17 5.3-25.4a4.4 4.4 0 014.1-3.6h27.8c1.8 0 3 1.6 2.7 3.6-1.4 8.5-2.8 16.9-4.3 25.4a4.3 4.3 0 01-4 3.5zM744 637.4h-28.9a3.3 3.3 0 01-3.3-3.6c.2-8.5.4-16.9.7-25.4a3.5 3.5 0 013.4-3.6h27.8a3.6 3.6 0 013.4 3.6l.3 25.4a3.5 3.5 0 01-3.4 3.6zM626 637.4h-28.9a3 3 0 01-2.9-3.6l4.2-25.4a4.1 4.1 0 013.8-3.6h27.9a2.9 2.9 0 012.8 3.6c-1 8.5-2 16.9-3.1 25.4a4 4 0 01-3.8 3.6zM665.3 637.4h-28.9a3.1 3.1 0 01-3-3.6l3-25.4a4 4 0 013.7-3.6H668a3.2 3.2 0 013 3.6c-.7 8.5-1.3 16.9-2 25.4a3.9 3.9 0 01-3.7 3.6zM704.6 637.4h-28.9a3.1 3.1 0 01-3.1-3.6c.6-8.5 1.2-16.9 1.9-25.4a3.7 3.7 0 013.5-3.6h27.8a3.3 3.3 0 013.2 3.6c-.3 8.5-.5 16.9-.8 25.4a3.7 3.7 0 01-3.6 3.6zM580.2 675.9H550a2.8 2.8 0 01-2.8-3.5c1.8-8.5 3.5-17 5.3-25.4a4.6 4.6 0 014.2-3.6h29.1a2.8 2.8 0 012.8 3.6l-4.2 25.4a4.4 4.4 0 01-4.2 3.5zM744.1 676h-30.2a3.4 3.4 0 01-3.4-3.6c.2-8.5.5-16.9.7-25.4a3.7 3.7 0 013.6-3.6h29.1a3.5 3.5 0 013.4 3.6l.3 25.4a3.4 3.4 0 01-3.5 3.6zM621.7 675.9h-30.2a2.9 2.9 0 01-3-3.5c1.4-8.5 2.8-17 4.1-25.4a4.4 4.4 0 014.1-3.6h29.1a3.1 3.1 0 013 3.6c-1.1 8.4-2.1 16.9-3.1 25.4a4.3 4.3 0 01-4 3.5zM661.8 675.9h-30.2a3 3 0 01-3.1-3.5l3-25.4a4.1 4.1 0 013.9-3.6h29.1a3.1 3.1 0 013.1 3.6c-.6 8.4-1.3 16.9-2 25.4a3.8 3.8 0 01-3.8 3.5zM703.1 676H673a3.2 3.2 0 01-3.3-3.5l1.8-25.4a3.9 3.9 0 013.7-3.6h29.1a3.5 3.5 0 013.4 3.6l-.9 25.4a3.7 3.7 0 01-3.7 3.5zM573.8 714.5h-31.4a2.9 2.9 0 01-3-3.6c1.8-8.4 3.5-16.9 5.3-25.3a4.6 4.6 0 014.3-3.6h30.4a3 3 0 013 3.6l-4.2 25.3a4.6 4.6 0 01-4.4 3.6zM616.8 714.5h-31.4a3.1 3.1 0 01-3.2-3.6l4.2-25.3a4.3 4.3 0 014.1-3.6h30.4a3.2 3.2 0 013.2 3.6c-1.1 8.4-2.1 16.9-3.1 25.3a4.3 4.3 0 01-4.2 3.6zM831.3 714.5H626.7a3.2 3.2 0 01-3.3-3.6c1-8.4 2-16.9 3.1-25.3a4.1 4.1 0 014-3.6h197.6a4.1 4.1 0 014 3.6c.9 8.4 1.7 16.9 2.6 25.4a3.2 3.2 0 01-3.4 3.5zM783.3 637.4h-28.9a3.6 3.6 0 01-3.5-3.6c-.1-8.5-.2-16.9-.4-25.4a3.4 3.4 0 013.3-3.6h27.8a3.7 3.7 0 013.5 3.5c.5 8.5 1 17 1.4 25.4a3.3 3.3 0 01-3.2 3.7zM940.7 637.4h-28.9a4.6 4.6 0 01-4.2-3.6c-1.6-8.4-3.3-16.9-4.9-25.3-.4-2 .8-3.6 2.6-3.6h27.8a4.8 4.8 0 014.2 3.6c2 8.4 3.9 16.9 5.9 25.3.5 2-.6 3.6-2.5 3.6zM822.7 637.4h-29a3.8 3.8 0 01-3.6-3.6l-1.5-25.4a3.1 3.1 0 013-3.5h27.9a3.9 3.9 0 013.6 3.5c.9 8.5 1.8 17 2.6 25.4a3.1 3.1 0 01-3 3.6zM862 637.4h-28.9a4 4 0 01-3.8-3.6l-2.7-25.4a3 3 0 012.9-3.5h27.9a4.1 4.1 0 013.8 3.5c1.2 8.5 2.4 17 3.7 25.4a3 3 0 01-2.9 3.6zM901.3 637.4h-28.9a4.2 4.2 0 01-3.9-3.6c-1.3-8.4-2.6-16.9-3.8-25.4a2.8 2.8 0 012.7-3.5h27.8a4.3 4.3 0 014 3.6c1.6 8.4 3.2 16.9 4.9 25.3a2.9 2.9 0 01-2.8 3.6zM785.7 676h-30.1a3.7 3.7 0 01-3.7-3.6c-.1-8.5-.2-16.9-.4-25.4a3.5 3.5 0 013.4-3.6H784a3.7 3.7 0 013.6 3.6l1.5 25.4a3.4 3.4 0 01-3.4 3.6zM949.6 676h-70.4a4.3 4.3 0 01-4.1-3.6c-1.3-8.5-2.6-16.9-3.8-25.4a3 3 0 012.9-3.6h67.9a5 5 0 014.3 3.6c2 8.5 3.9 16.9 5.9 25.4a2.7 2.7 0 01-2.7 3.6zM827.2 676H797a3.8 3.8 0 01-3.8-3.6c-.5-8.5-1-16.9-1.6-25.4a3.3 3.3 0 013.3-3.6H824a4 4 0 013.8 3.6c.8 8.5 1.7 16.9 2.6 25.4a3.2 3.2 0 01-3.2 3.6zM867.3 676h-30.2a4.1 4.1 0 01-3.9-3.6l-2.7-25.4a3.1 3.1 0 013.1-3.6h29.1a4.1 4.1 0 013.9 3.6c1.3 8.5 2.5 16.9 3.7 25.4a3 3 0 01-3 3.6zM958.6 714.5h-31.5a4.7 4.7 0 01-4.4-3.5c-1.6-8.5-3.3-16.9-4.9-25.4a2.8 2.8 0 012.8-3.6H951a4.9 4.9 0 014.5 3.6c2 8.5 4 16.9 5.9 25.4a2.7 2.7 0 01-2.8 3.5zM872.8 714.5h-31.5a4.3 4.3 0 01-4.1-3.5c-.8-8.5-1.7-17-2.6-25.4a3.2 3.2 0 013.2-3.6h30.4a4.4 4.4 0 014.1 3.6c1.2 8.4 2.4 16.9 3.7 25.4a3.1 3.1 0 01-3.2 3.5zM915.9 714.5h-31.5a4.4 4.4 0 01-4.2-3.5l-3.9-25.4a3 3 0 013.1-3.6h30.4a4.6 4.6 0 014.3 3.6l4.8 25.4a2.9 2.9 0 01-3 3.5z"/></g><g fill="none" stroke-width="9.42" stroke="#4f4f4f" stroke-miterlimit="10"><circle cx="1060.6" cy="385.2" r="30.5"/><path stroke-linecap="round" d="M1101.8 425.7l-18.9-18.9"/></g><path class="cls-5" d="M481 760.7l9.5 16.2a3.9 3.9 0 003.3 1.4l518.7-.6a4.4 4.4 0 003.3-1.3l10.7-14.9z"/><g><circle cx="932.1" cy="858.2" r="24.8" fill="url(#radial-gradient)"/><circle class="cls-3" cx="931.9" cy="858.8" r="8.5"/></g><circle cx="434.8" cy="701" r="24.8" fill="url(#radial-gradient-2)"/><circle class="cls-3" cx="434.6" cy="701.6" r="8.5"/><circle cx="1184" cy="457.8" r="24.8" fill="url(#radial-gradient-3)"/><circle class="cls-3" cx="1183.8" cy="458.3" r="8.5"/><circle cx="743.4" cy="201.6" r="24.8" fill="url(#radial-gradient-4)"/><circle class="cls-3" cx="743.2" cy="202.2" r="8.5"/><path class="cls-4" d="M436.5 436.8a1.9 1.9 0 01-3.5 0 62.5 62.5 0 00-13.5-18.8 64.3 64.3 0 00-16.1-10.9 1.9 1.9 0 010-3.5 56.7 56.7 0 0018.1-12.2 57.5 57.5 0 0011.6-17.4 1.9 1.9 0 013.5-.1 58.8 58.8 0 0010.4 15.7 59.9 59.9 0 0019.3 13.9 1.9 1.9 0 010 3.5 61.2 61.2 0 00-17 11.6 59.3 59.3 0 00-12.8 18.2zM1085 607a1.9 1.9 0 01-3.5 0 62.5 62.5 0 00-13.5-18.8 64.3 64.3 0 00-16.1-10.9 1.9 1.9 0 010-3.5 56.1 56.1 0 0029.7-29.6 1.9 1.9 0 013.5 0 60.1 60.1 0 0010.4 15.6 58.4 58.4 0 0019.3 13.9 1.9 1.9 0 010 3.5 62.9 62.9 0 00-17.1 11.6A61.7 61.7 0 001085 607zM676.6 899.2a2 2 0 01-3.6 0 59.7 59.7 0 00-13.5-18.8 56.4 56.4 0 00-16.1-10.9 1.9 1.9 0 01.1-3.5 55.4 55.4 0 0029.6-29.6 2 2 0 013.6-.1A59.8 59.8 0 00687 852a62.6 62.6 0 0019.3 13.9 1.9 1.9 0 010 3.5 59 59 0 00-17 11.6 57 57 0 00-12.7 18.2zM615.1 256a1.9 1.9 0 01-3.5 0 58.6 58.6 0 00-13.5-18.8 59.3 59.3 0 00-16.1-10.9 2 2 0 010-3.6 56.2 56.2 0 0018.1-12.1 57.7 57.7 0 0011.6-17.5 1.9 1.9 0 013.5 0 60.1 60.1 0 0010.4 15.6 58.4 58.4 0 0019.3 13.9 2 2 0 010 3.6 57.1 57.1 0 00-17 11.6 58.1 58.1 0 00-12.8 18.2z"/></g></svg>