<svg xmlns="http://www.w3.org/2000/svg" xmlns:xlink="http://www.w3.org/1999/xlink" viewBox="0 0 1170 1060"><defs><style>.cls-1{fill:#46679e;}.cls-2{fill:#2a5090;}.cls-3{fill:#184186;}.cls-4,.cls-7{fill:#e9ebef;}.cls-5{fill:#6097c9;}.cls-6{fill:#dda417;}.cls-10,.cls-11,.cls-7{stroke:#4f4f4f;stroke-miterlimit:10;}.cls-7{stroke-width:2.16px;}.cls-8{fill:#fff;}.cls-9{fill:#64c2d1;}.cls-10,.cls-11{fill:none;stroke-width:9.42px;}.cls-11{stroke-linecap:round;}.cls-12{fill:url(#radial-gradient);}.cls-13{fill:url(#radial-gradient-2);}.cls-14{fill:url(#radial-gradient-3);}.cls-15{fill:url(#radial-gradient-4);}</style><radialGradient id="radial-gradient" cx="720.91" cy="842.39" r="24.32" gradientUnits="userSpaceOnUse"><stop offset="0" stop-color="#fff" stop-opacity="0.5"/><stop offset="1" stop-color="#e9ebef" stop-opacity="0"/></radialGradient><radialGradient id="radial-gradient-2" cx="232.8" cy="688.08" r="24.32" xlink:href="#radial-gradient"/><radialGradient id="radial-gradient-3" cx="968.14" cy="449.31" r="24.32" xlink:href="#radial-gradient"/><radialGradient id="radial-gradient-4" cx="535.67" cy="197.92" r="24.32" xlink:href="#radial-gradient"/></defs><g id="COmputer"><path class="cls-1" d="M455.23,1053.46c-61.61,0-122.75-11.84-176.8-34.24-62.08-25.74-111.64-64.39-143.29-111.76-27.65-41.38-31.32-74.67-34.26-101.42-2.44-22.16-5.2-47.27-25.68-99.45-9.48-24.14-18-41.67-25.46-57.13-14.92-30.77-29-59.82-36.18-108.12C4.06,477.52,11,412,34.16,346.67A415.66,415.66,0,0,1,95.09,234.12a458.17,458.17,0,0,1,75.23-77.56c49.54-40.45,95.37-61.66,112.78-68.9C366.17,53.12,455.26,48,501,48h4.73c16.06.07,29.34.8,40,1.39,9,.5,16.16.89,23.45.89a202.62,202.62,0,0,0,25.07-1.62c28.4-3.44,40.88-9,58.16-16.72,17.45-7.78,41.34-18.44,74.82-23.06a247.43,247.43,0,0,1,33.72-2.31c57.19,0,115.36,19.35,172.87,57.53,47.38,31.44,85.31,69.94,108.77,96.7,25.63,29.22,72.57,92,99,183.89,35,121.58,12.71,221.93,3.2,264.78-.33,1.49-.68,3.09-1,4.81l0,.21c-7,31.8-21.47,98-52.53,163.63-21.83,46.18-48.26,84.2-78.55,113-31.92,30.36-68.45,51-108.6,61.24a220.16,220.16,0,0,1-56.09,6.79c-11.19,0-21.85-.68-31.26-1.29-9.09-.58-17.67-1.13-26.63-1.13A213.66,213.66,0,0,0,743,962.14c-32.09,7.09-46.31,15.81-67.84,29-19,11.68-42.76,26.22-77.26,38.63C554.81,1045.27,505.48,1053.46,455.23,1053.46Z"/><path class="cls-2" d="M455.23,1007.92c-55.68,0-110.79-10.64-159.36-30.77-53.74-22.28-96.23-55.13-122.87-95-21.47-32.12-24.08-55.91-26.86-81.1-2.61-23.74-5.86-53.29-28.55-111.11-10.12-25.79-19-44.17-26.88-60.38-13.92-28.72-25.94-53.52-32.11-94.93-8.39-56.37-2.17-114.49,18.48-172.75,55.09-155.42,195.85-220.68,223.51-232.18C376.35,98.2,458.66,93.5,501,93.5h4.5c14.91.07,27,.73,37.74,1.32,9.33.51,17.39,1,25.95,1a248.28,248.28,0,0,0,30.56-2c35.2-4.27,52.7-12.08,71.22-20.34,16.61-7.41,35.43-15.8,62.5-19.54a201.19,201.19,0,0,1,27.49-1.88c109.41,0,202,86.91,247.41,138.72,23.12,26.36,65.49,83,89.48,166.45,31.77,110.44,11.27,202.87,2.51,242.33-.35,1.57-.72,3.29-1.13,5.14-6.61,30.16-20.36,92.91-49.2,153.91-39,82.54-92,132.88-157.28,149.61a176.33,176.33,0,0,1-44.8,5.36c-9.74,0-19.21-.61-28.36-1.19-9.4-.6-19.11-1.23-29.53-1.23a257.58,257.58,0,0,0-56.89,6.5c-39.55,8.73-59.13,20.74-81.81,34.65-18.18,11.14-38.77,23.77-68.88,34.6C544.28,1000.66,500.29,1007.92,455.23,1007.92Z"/><path class="cls-3" d="M318.08,171.76c-16.33,6.79-148,64-198.08,205.34-7,19.76-27.11,78.58-16.36,150.83,8.24,55.31,27.69,72.38,56.34,145.38,47.14,120.12,18.49,135.08,50.88,183.54C274.27,951.74,446.29,987.52,567,944.08c62.06-22.32,76-53.14,156.28-70.87,79.86-17.64,111.84,2.76,158.1-9.09,125.14-32,163.45-224.78,174.46-274.4,9.29-41.88,26.17-122.56-1.82-219.88-24-83.29-68.46-135.91-80-149-18-20.53-120.58-137.48-234.42-121.75-47.32,6.54-59.9,30.93-134.48,40-41.51,5-59.93.18-100,0C486.21,139,397.93,138.55,318.08,171.76Z"/><path class="cls-4" d="M334.9,304.61H749.21a16.86,16.86,0,0,1,16.86,16.86V571.11a0,0,0,0,1,0,0H320.25a0,0,0,0,1,0,0V319.26A14.65,14.65,0,0,1,334.9,304.61Z"/><rect class="cls-5" x="335.72" y="317.41" width="415.54" height="217.51" rx="14.17"/><rect class="cls-6" x="730.5" y="241.88" width="80.82" height="106.67"/><rect class="cls-7" x="380.45" y="351.72" width="319.68" height="154.98" rx="9.41"/><rect class="cls-8" x="739.52" y="254.48" width="61.85" height="1.96" transform="translate(-0.26 0.8) rotate(-0.06)"/><rect class="cls-8" x="739.52" y="285.17" width="61.85" height="1.96" transform="translate(-0.3 0.8) rotate(-0.06)"/><rect class="cls-8" x="739.52" y="269.82" width="61.85" height="1.96" transform="translate(-0.28 0.8) rotate(-0.06)"/><rect class="cls-8" x="739.52" y="300.51" width="61.85" height="1.96" transform="translate(-0.31 0.8) rotate(-0.06)"/><rect class="cls-8" x="739.52" y="315.86" width="61.85" height="1.96" transform="translate(-0.33 0.8) rotate(-0.06)"/><rect class="cls-8" x="739.52" y="331.2" width="61.85" height="1.96" transform="translate(-0.34 0.8) rotate(-0.06)"/><rect class="cls-9" x="405.17" y="394.65" width="50.07" height="29.18" rx="3.88"/><rect class="cls-9" x="625.35" y="394.65" width="50.07" height="29.18" rx="3.88"/><rect class="cls-9" x="460.49" y="394.65" width="50.07" height="29.18" rx="3.88"/><rect class="cls-9" x="514.34" y="394.65" width="50.07" height="29.18" rx="3.88"/><rect class="cls-9" x="569.81" y="394.65" width="50.07" height="29.18" rx="3.88"/><rect class="cls-9" x="405.45" y="429.24" width="50.07" height="29.18" rx="3.88"/><rect class="cls-9" x="625.35" y="429.24" width="50.07" height="29.18" rx="3.88"/><rect class="cls-9" x="461.05" y="429.24" width="50.07" height="29.18" rx="3.88"/><rect class="cls-9" x="514.9" y="429.24" width="50.07" height="29.18" rx="3.88"/><rect class="cls-9" x="570.37" y="429.24" width="50.07" height="29.18" rx="3.88"/><rect class="cls-9" x="405.73" y="463.84" width="50.07" height="29.18" rx="3.88"/><rect class="cls-9" x="625.35" y="463.84" width="50.07" height="29.18" rx="3.88"/><rect class="cls-9" x="461.05" y="463.84" width="50.07" height="29.18" rx="3.88"/><rect class="cls-9" x="514.9" y="463.84" width="50.07" height="29.18" rx="3.88"/><rect class="cls-9" x="570.37" y="463.84" width="50.07" height="29.18" rx="3.88"/><rect class="cls-9" x="431.93" y="361.61" width="216.74" height="20.09"/><rect class="cls-9" x="797.58" y="305.45" width="129.55" height="128.37" transform="translate(185.81 -280.42) rotate(20.65)"/><rect class="cls-5" x="814.51" y="321.46" width="97.47" height="96.59" transform="translate(185.91 -280.73) rotate(20.65)"/><polygon class="cls-4" points="360.69 588.14 722.43 589.5 799.07 757.86 290.35 759.78 360.69 588.14"/><path class="cls-4" d="M800.55,754.65H291.75c-11,0-17.74-8.09-15.15-18.07l43.68-168.09,445.46.12,49.37,168C818,746.55,811.52,754.65,800.55,754.65Z"/><polygon class="cls-5" points="764.9 711.34 324.02 711.31 351.56 584.25 733.32 584.34 764.9 711.34"/><path class="cls-4" d="M381.8,625.6H353.43a2.72,2.72,0,0,1-2.62-3.52c2.07-10,3.11-15,5.18-24.92a4.39,4.39,0,0,1,4-3.51h27.32a2.79,2.79,0,0,1,2.64,3.51l-4.17,24.92A4.23,4.23,0,0,1,381.8,625.6Z"/><path class="cls-4" d="M536.26,625.63H507.89a3.32,3.32,0,0,1-3.26-3.51c.29-10,.43-15,.72-24.92a3.5,3.5,0,0,1,3.33-3.51H536a3.43,3.43,0,0,1,3.28,3.51c.12,10,.17,14.95.29,24.92A3.38,3.38,0,0,1,536.26,625.63Z"/><path class="cls-4" d="M420.42,625.61H392.05a2.85,2.85,0,0,1-2.79-3.51c1.63-10,2.44-15,4.07-24.92a4.14,4.14,0,0,1,3.81-3.51h27.32a2.94,2.94,0,0,1,2.8,3.52c-1.22,10-1.83,15-3.06,24.92A4,4,0,0,1,420.42,625.61Z"/><path class="cls-4" d="M459,625.62H430.66a3,3,0,0,1-2.94-3.51l2.95-24.92a3.92,3.92,0,0,1,3.65-3.51h27.32a3.1,3.1,0,0,1,3,3.52c-.78,10-1.16,14.95-1.94,24.91A3.79,3.79,0,0,1,459,625.62Z"/><path class="cls-4" d="M497.64,625.62H469.27a3.15,3.15,0,0,1-3.09-3.52c.73-10,1.1-15,1.83-24.91a3.72,3.72,0,0,1,3.49-3.52h27.32a3.25,3.25,0,0,1,3.12,3.51c-.33,10-.49,14.95-.82,24.92A3.58,3.58,0,0,1,497.64,625.62Z"/><path class="cls-4" d="M375.52,663.48H345.9a2.77,2.77,0,0,1-2.77-3.51c2.07-10,3.11-15,5.18-24.92a4.46,4.46,0,0,1,4.11-3.51H381a2.85,2.85,0,0,1,2.79,3.51c-1.67,10-2.5,15-4.17,24.92A4.31,4.31,0,0,1,375.52,663.48Z"/><path class="cls-4" d="M536.39,663.49H506.77a3.39,3.39,0,0,1-3.4-3.51c.29-10,.43-15,.72-24.92a3.58,3.58,0,0,1,3.49-3.51h28.56a3.5,3.5,0,0,1,3.42,3.52c.12,10,.18,14.95.29,24.91A3.46,3.46,0,0,1,536.39,663.49Z"/><path class="cls-4" d="M416.2,663.48H386.58a2.91,2.91,0,0,1-2.93-3.52l4.05-24.91a4.23,4.23,0,0,1,3.95-3.52h28.57a3,3,0,0,1,2.95,3.51c-1.22,10-1.82,15-3,24.92A4.08,4.08,0,0,1,416.2,663.48Z"/><path class="cls-4" d="M455.59,663.49H426a3.05,3.05,0,0,1-3.09-3.51c1.19-10,1.78-15,3-24.92a4,4,0,0,1,3.79-3.51h28.57a3.14,3.14,0,0,1,3.1,3.52c-.78,10-1.16,15-1.94,24.91A3.88,3.88,0,0,1,455.59,663.49Z"/><path class="cls-4" d="M496.17,663.49H466.55A3.22,3.22,0,0,1,463.3,660c.74-10,1.11-15,1.84-24.91a3.78,3.78,0,0,1,3.64-3.52h28.57a3.32,3.32,0,0,1,3.26,3.51c-.33,10-.49,15-.82,24.92A3.66,3.66,0,0,1,496.17,663.49Z"/><path class="cls-4" d="M369.26,701.35H338.39a2.82,2.82,0,0,1-2.92-3.51c2.07-10,3.1-15,5.17-24.93a4.57,4.57,0,0,1,4.26-3.51h29.81a2.9,2.9,0,0,1,2.94,3.52c-1.66,10-2.49,15-4.16,24.92A4.4,4.4,0,0,1,369.26,701.35Z"/><path class="cls-4" d="M411.43,701.35H380.57a3,3,0,0,1-3.08-3.51l4.05-24.92a4.31,4.31,0,0,1,4.1-3.51h29.81a3,3,0,0,1,3.1,3.51c-1.21,10-1.82,15-3,24.92A4.16,4.16,0,0,1,411.43,701.35Z"/><path class="cls-4" d="M622,701.37l-200.86,0a3.11,3.11,0,0,1-3.23-3.51c1.19-10,1.79-15,3-24.92a4.08,4.08,0,0,1,4-3.51l194,0a4,4,0,0,1,3.89,3.51l2.55,24.91A3.18,3.18,0,0,1,622,701.37Z"/><path class="cls-4" d="M574.87,625.64H546.5a3.5,3.5,0,0,1-3.41-3.51l-.4-24.92a3.32,3.32,0,0,1,3.18-3.51h27.32a3.62,3.62,0,0,1,3.43,3.51c.56,10,.84,14.95,1.41,24.92A3.21,3.21,0,0,1,574.87,625.64Z"/><path class="cls-4" d="M729.33,625.66H701a4.39,4.39,0,0,1-4-3.52c-1.94-10-2.91-14.94-4.86-24.9-.38-1.94.76-3.52,2.55-3.52h27.32a4.55,4.55,0,0,1,4.06,3.51c2.35,10,3.52,15,5.87,24.91A2.63,2.63,0,0,1,729.33,625.66Z"/><path class="cls-4" d="M613.49,625.64H585.11a3.7,3.7,0,0,1-3.57-3.51c-.6-10-.9-15-1.51-24.92a3.14,3.14,0,0,1,3-3.51h27.32a3.84,3.84,0,0,1,3.59,3.51c1,10,1.51,14.95,2.53,24.91A3.05,3.05,0,0,1,613.49,625.64Z"/><path class="cls-4" d="M652.1,625.65H623.73a3.93,3.93,0,0,1-3.73-3.52c-1-10-1.58-15-2.63-24.91a3,3,0,0,1,2.86-3.51h27.32a4.07,4.07,0,0,1,3.75,3.52c1.45,10,2.18,14.94,3.64,24.91A2.9,2.9,0,0,1,652.1,625.65Z"/><path class="cls-4" d="M690.71,625.66H662.34a4.14,4.14,0,0,1-3.88-3.51l-3.75-24.91a2.84,2.84,0,0,1,2.7-3.51h27.32a4.3,4.3,0,0,1,3.91,3.52c1.9,10,2.85,14.94,4.76,24.9A2.77,2.77,0,0,1,690.71,625.66Z"/><path class="cls-4" d="M577.24,663.5H547.63a3.59,3.59,0,0,1-3.57-3.51l-.4-24.92a3.38,3.38,0,0,1,3.32-3.51h28.57a3.71,3.71,0,0,1,3.58,3.52c.56,10,.85,14.94,1.42,24.91A3.28,3.28,0,0,1,577.24,663.5Z"/><path class="cls-4" d="M738.11,663.52H669a4.23,4.23,0,0,1-4-3.51c-1.51-10-2.26-15-3.77-24.91a2.9,2.9,0,0,1,2.85-3.51H730.7a4.63,4.63,0,0,1,4.21,3.51c2.35,10,3.53,14.94,5.88,24.91A2.69,2.69,0,0,1,738.11,663.52Z"/><path class="cls-4" d="M617.92,663.51H588.3a3.78,3.78,0,0,1-3.72-3.51c-.61-10-.92-15-1.53-24.91a3.21,3.21,0,0,1,3.16-3.52h28.57a3.92,3.92,0,0,1,3.74,3.51L621.07,660A3.12,3.12,0,0,1,617.92,663.51Z"/><path class="cls-4" d="M657.31,663.51H627.69a4,4,0,0,1-3.87-3.52c-1.05-10-1.58-14.94-2.63-24.91a3.05,3.05,0,0,1,3-3.51h28.57a4.14,4.14,0,0,1,3.89,3.52c1.46,10,2.19,14.94,3.64,24.91A3,3,0,0,1,657.31,663.51Z"/><path class="cls-4" d="M746.9,701.38H716a4.56,4.56,0,0,1-4.33-3.51c-2-10-2.92-14.94-4.87-24.91a2.82,2.82,0,0,1,2.84-3.51h29.82a4.72,4.72,0,0,1,4.35,3.52l5.88,24.9A2.75,2.75,0,0,1,746.9,701.38Z"/><path class="cls-4" d="M662.7,701.37H631.83a4.07,4.07,0,0,1-4-3.51c-1-10-1.58-15-2.63-24.92a3.11,3.11,0,0,1,3.16-3.51h29.81a4.21,4.21,0,0,1,4,3.51c1.46,10,2.19,14.94,3.64,24.91A3,3,0,0,1,662.7,701.37Z"/><path class="cls-4" d="M705,701.37H674.12a4.31,4.31,0,0,1-4.18-3.51L666.19,673a3,3,0,0,1,3-3.51H699a4.46,4.46,0,0,1,4.2,3.51c1.9,10,2.86,14.95,4.76,24.91A2.87,2.87,0,0,1,705,701.37Z"/><circle class="cls-10" cx="847.01" cy="378.08" r="29.97"/><line class="cls-11" x1="887.47" y1="417.89" x2="868.9" y2="399.33"/><path class="cls-5" d="M278.08,746.63l9.32,15.92a4.12,4.12,0,0,0,3.33,1.41l509.14-.62a4.26,4.26,0,0,0,3.17-1.23l10.52-14.69Z"/><circle class="cls-12" cx="720.91" cy="842.39" r="24.32"/><circle class="cls-3" cx="720.71" cy="842.95" r="8.39"/><circle class="cls-13" cx="232.8" cy="688.08" r="24.32"/><circle class="cls-3" cx="232.59" cy="688.64" r="8.39"/><circle class="cls-14" cx="968.14" cy="449.31" r="24.32"/><circle class="cls-3" cx="967.93" cy="449.86" r="8.39"/><circle class="cls-15" cx="535.67" cy="197.92" r="24.32"/><circle class="cls-3" cx="535.46" cy="198.47" r="8.39"/><path class="cls-4" d="M234.46,428.75a1.9,1.9,0,0,1-3.46,0,59.47,59.47,0,0,0-29.06-29.17,1.89,1.89,0,0,1,.06-3.46,54.33,54.33,0,0,0,29.09-29.05,1.89,1.89,0,0,1,3.47,0,58.08,58.08,0,0,0,29.12,29,1.9,1.9,0,0,1,0,3.45,58.42,58.42,0,0,0-29.23,29.25Z"/><path class="cls-4" d="M871,595.83a1.9,1.9,0,0,1-3.46,0,59.45,59.45,0,0,0-29.07-29.16,1.89,1.89,0,0,1,.06-3.46,54.3,54.3,0,0,0,29.09-29.06,1.9,1.9,0,0,1,3.47,0,58.16,58.16,0,0,0,29.12,29,1.89,1.89,0,0,1,0,3.45A58.38,58.38,0,0,0,871,595.83Z"/><path class="cls-4" d="M470.08,882.6a1.89,1.89,0,0,1-3.45,0,59.45,59.45,0,0,0-29.07-29.16,1.9,1.9,0,0,1,.06-3.47,54.33,54.33,0,0,0,29.09-29,1.9,1.9,0,0,1,3.47-.05,58.19,58.19,0,0,0,29.12,29,1.9,1.9,0,0,1,0,3.46,58.35,58.35,0,0,0-29.23,29.24Z"/><path class="cls-4" d="M409.77,251.23a1.89,1.89,0,0,1-3.45,0,59.53,59.53,0,0,0-29.07-29.17,1.89,1.89,0,0,1,.06-3.46,54.33,54.33,0,0,0,29.09-29.05,1.89,1.89,0,0,1,3.47,0,58.08,58.08,0,0,0,29.12,29,1.9,1.9,0,0,1,0,3.46,58.35,58.35,0,0,0-29.23,29.24Z"/></g></svg>