<svg id="Layer_1" data-name="Layer 1" xmlns="http://www.w3.org/2000/svg" viewBox="0 0 500 500"><defs><style>.cls-1{fill:#64c2d1}.cls-3{fill:#6097c9}.cls-5,.cls-6{stroke-miterlimit:10}.cls-5{fill:none;stroke:#dda417;stroke-linecap:round;stroke-width:4.99px}.cls-6{fill:#fff;stroke:#6097c9}</style></defs><path class="cls-1" d="M139.4 135.8l-24.2-4.7a103.5 103.5 0 011.9-18.5 97.2 97.2 0 015-16.8l24.2 4.8a110.6 110.6 0 00-4.8 16.5 106.7 106.7 0 00-2.1 18.7z"/><path d="M340.6 408.5l-21.5-7.3a86.4 86.4 0 013.9-16.6 91.2 91.2 0 016.6-14.8l21.6 7.3a96 96 0 00-6.4 14.5 98.7 98.7 0 00-4.2 16.9z" fill="#00c0ce"/><path class="cls-3" d="M216.4 103.8l-15 7.4a62.6 62.6 0 01-6.5-10.7 66.4 66.4 0 01-4.3-11l15-7.5a70.2 70.2 0 004.2 10.9 66.6 66.6 0 006.6 10.9z"/><path class="cls-1" d="M312.5 91.9l-12 17a83 83 0 01-13.5-7.8 82.3 82.3 0 01-11.2-9.6l12-17a84.6 84.6 0 0011 9.4 95.2 95.2 0 0013.7 8z"/><path class="cls-3" d="M213.4 427.8l-12 16.9a83.5 83.5 0 01-13.6-7.8 75.2 75.2 0 01-11.1-9.6l11.9-17a86.1 86.1 0 0011.1 9.4 95.2 95.2 0 0013.7 8.1zM93.5 216.7l-8.1 11.4a53.7 53.7 0 01-9.1-5.3 57.5 57.5 0 01-7.5-6.5l8.1-11.4a54.9 54.9 0 007.4 6.3 60 60 0 009.2 5.5zM351.2 109.5L129.3 219v.4L81.6 341.9 208 378.5l.2.4 221.9-109.5zM129.3 336.4a16.5 16.5 0 1114.3-14.2 16.5 16.5 0 01-14.3 14.2z"/><path stroke-miterlimit="10" stroke="#f4c745" stroke-width="8" fill="#6097c9" d="M145.6287 229.9601L347.526 129.298l64.7567 129.8818L210.3854 359.842z"/><path class="cls-5" d="M429.3 117.3l-12.9 15.3M268.4 375.6L255.5 391M150.3 157.3l19.8-3.2M394.8 352.1l19.8-3.2"/><path class="cls-6" d="M184.7 253.5l30.8-15 3 6.2-23.4 11.4 9.3 18.9 21.5-10.5 3 6.1-21.6 10.5 12.6 25.9-7.3 3.5zM226.3 234.1a87.3 87.3 0 0113.6-8c7.9-3.9 13.6-4.9 18.8-3.4a15.4 15.4 0 019.7 8.6c3.7 7.5 1.4 14.9-3.6 19.8v.3c5.2-.7 9.8 2.1 14 7.4 5.8 7 9.8 11.9 12 13.5l-7.6 3.7c-1.7-1.1-5.4-5.4-10.4-11.7s-10.1-8.6-16.9-5.6l-6.9 3.4 12.1 24.7-7.4 3.6zm20.1 22.4l7.5-3.6c7.9-3.9 10.8-10.6 7.6-17.1s-10.5-8-18.3-4.3a32.2 32.2 0 00-7 4.2zM315.8 227.1l-22.2 10.8 10.1 20.5 24.7-12 3 6.2-32.1 15.6-27.8-57 30.8-15.1 3 6.2-23.4 11.5 8.8 18 22.1-10.8zM357.5 206.7l-22.2 10.9 10 20.5 24.7-12 3 6.2-32 15.6-27.9-57 30.8-15.1 3.1 6.2-23.5 11.4 8.8 18.1 22.2-10.9z"/></svg>