<svg xmlns="http://www.w3.org/2000/svg" xmlns:xlink="http://www.w3.org/1999/xlink" viewBox="0 0 1715 1320"><defs><style>.cls-1,.cls-23{fill:none;}.cls-2{fill:#46679e;}.cls-3{fill:#2a5090;}.cls-4{fill:#184186;}.cls-5{fill:#f4c745;}.cls-6{fill:#dda417;}.cls-7{fill:#f3be16;}.cls-8{fill:#959595;}.cls-9{fill:#64c2d1;}.cls-10,.cls-16{fill:#e9ebef;}.cls-11{fill:#6097c9;}.cls-12{fill:#fff;}.cls-13{fill:#3eb1a4;}.cls-14{fill:#4f4f4f;}.cls-15{fill:#1b4d96;}.cls-16,.cls-23{stroke:#4f4f4f;stroke-miterlimit:10;stroke-width:3.48px;}.cls-17{fill:#a5a5a5;}.cls-18{fill:url(#radial-gradient);}.cls-19{fill:url(#radial-gradient-2);}.cls-20{fill:url(#radial-gradient-3);}.cls-21{fill:url(#radial-gradient-4);}.cls-22{clip-path:url(#clip-path);}</style><radialGradient id="radial-gradient" cx="743.5" cy="456.47" r="24.77" gradientUnits="userSpaceOnUse"><stop offset="0" stop-color="#fff" stop-opacity="0.5"/><stop offset="1" stop-color="#e9ebef" stop-opacity="0"/></radialGradient><radialGradient id="radial-gradient-2" cx="1224.5" cy="707.47" r="24.77" xlink:href="#radial-gradient"/><radialGradient id="radial-gradient-3" cx="1530.5" cy="684.47" r="24.77" xlink:href="#radial-gradient"/><radialGradient id="radial-gradient-4" cx="1074.5" cy="222.47" r="24.77" xlink:href="#radial-gradient"/><clipPath id="clip-path"><rect class="cls-1" x="342.86" y="327.24" width="268" height="172" transform="translate(-62.8 86.24) rotate(-9.7)"/></clipPath></defs><g id="Layer_2" data-name="Layer 2"><path class="cls-2" d="M768.93,1318.51c-41.17,0-77.95-8.53-112.45-26.07-83-42.22-109.07-113.47-130-170.72-16.89-46.19-32.84-89.83-79.43-135.71-20.59-20.29-31.56-26.14-46.73-34.24-11.68-6.23-26.22-14-42.27-26.33l-.88-.69-.82-.66a313.06,313.06,0,0,1-41.29-41.26c-50.08-60.27-90-123.35-118.7-187.48C173,643,156.91,589.79,148.67,537.15c-14.24-91.09-.84-150.74,2-161.77C169,304.13,208.26,240.62,267.5,186.61,314.58,143.68,374.28,107,444.94,77.43,598.33,13.35,751.36,3.46,794.61,2c8.88-.31,17.88-.47,26.75-.47,98.84,0,178.72,19.07,249.21,35.9C1148.42,56,1222,73.54,1288.46,101.74c78.25,33.19,135.43,76.2,180,135.36,24.45,32.48,36,58.48,46.27,81.42,10.56,23.69,20.54,46.05,50.21,87.59,27.74,38.84,45,55.4,60.15,70,17.92,17.24,38.24,36.78,56.55,72.67,41.58,81.49,43.47,190.94,5.2,300.29-36.71,104.88-105.59,195.8-189,249.44-70.61,45.42-126.45,47.22-171.31,48.66-37.87,1.22-77,2.47-149.29,32.88-36.52,15.37-62,29.89-89,45.27-46.1,26.25-93.75,53.38-176.59,71.6C856.75,1309,813.44,1318.51,768.93,1318.51Z"/><path class="cls-3" d="M772.93,1265.51c-33.11,0-62.48-6.75-89.79-20.64-65.48-33.3-85.93-89.23-105.7-143.32-18-49.35-36.7-100.39-91.3-154.16-25.75-25.37-41.56-33.8-58.28-42.73-10.58-5.64-22.56-12-35.32-21.85l-.44-.34-.44-.36a263.14,263.14,0,0,1-34.14-34.23C151.11,599.44,200.88,393.45,203.1,384.81c15.82-61.65,50.17-116.91,102.09-164.25,42.82-39.05,97.67-72.69,163-100,145.59-60.82,291-70.21,332.14-71.64,8.31-.29,16.72-.44,25-.44C918.31,48.49,995.15,66.84,1063,83c152.53,36.41,284.26,67.86,369.52,181.14,21,27.95,31,50.2,40.56,71.72,11.1,24.9,22.59,50.65,55.18,96.29,30.43,42.6,50.25,61.66,66.18,77,16.55,15.91,32.18,30.95,46.67,59.35,35.4,69.38,36.33,164.53,2.55,261.06-33.1,94.56-94.64,176.17-168.84,223.9-59,37.94-103.15,39.36-145.86,40.73-40.45,1.3-86.29,2.78-167.08,36.78-39.27,16.52-67.29,32.47-94.39,47.9-44.82,25.52-87.15,49.63-162.59,66.21C853,1256.5,812,1265.51,772.93,1265.51Z"/><path class="cls-4" d="M1443.72,1014.42c-97.69,62.83-131.89.5-305.29,73.47-107.64,45.29-136.73,86.83-248.32,111.37-84.3,18.54-137,30.13-188.31,4-96.29-49-59.9-165.74-184.58-288.54-47.69-47-71.28-47.88-98.18-68.58A214.45,214.45,0,0,1,392,818.93C199.52,587.27,247.53,400.24,247.53,400.24c57.13-222.6,388.56-292.71,550.56-298.34,97.78-3.41,175.78,15.22,249.25,32.76,147.62,35.24,266.74,63.68,341.19,162.58,39.3,52.21,30.57,76.8,95,167,63,88.19,86.49,85.89,109,130C1653.49,713.72,1580.87,926.19,1443.72,1014.42Z"/><circle class="cls-5" cx="1431.39" cy="497.5" r="84.64"/><path class="cls-6" d="M1431.39,426.79a70.71,70.71,0,1,1-70.71,70.71,70.79,70.79,0,0,1,70.71-70.71m0-5.92A76.63,76.63,0,1,0,1508,497.5a76.62,76.62,0,0,0-76.62-76.63Z"/><path class="cls-7" d="M1476.83,412.25a3,3,0,0,1-3-3V380.78a3,3,0,0,1,5.92,0v28.51A3,3,0,0,1,1476.83,412.25Z"/><path class="cls-7" d="M1498,423.17a3,3,0,0,1-2.26-4.86L1514,396.47a3,3,0,0,1,4.53,3.8l-18.33,21.84A2.93,2.93,0,0,1,1498,423.17Z"/><path class="cls-7" d="M1510.9,443.23a3,3,0,0,1-.51-5.86l28.08-4.95a3,3,0,1,1,1,5.82l-28.07,4.95A3.12,3.12,0,0,1,1510.9,443.23Z"/><path class="cls-8" d="M818.86,98.74A87.33,87.33,0,0,0,877.28,262l46.22,92.33a3.57,3.57,0,0,0,4.8,1.59l30.9-15.47a3.57,3.57,0,0,0,1.6-4.79l-46.23-92.34A87.33,87.33,0,0,0,818.86,98.74Z"/><path class="cls-9" d="M854.93,246.25A69.49,69.49,0,1,1,889,239,69.57,69.57,0,0,1,854.93,246.25Z"/><path class="cls-10" d="M829,193.47a2.89,2.89,0,0,1-.8-.15,3,3,0,0,1-1.87-3.74l13.21-39.68a3,3,0,1,1,5.6,1.86l-13.2,39.69A3,3,0,0,1,829,193.47Z"/><path class="cls-10" d="M811.68,192.46a2.89,2.89,0,0,1-.81-.15,3,3,0,0,1-1.87-3.74l8.1-24.32a3,3,0,1,1,5.6,1.87l-8.09,24.32A3,3,0,0,1,811.68,192.46Z"/><path class="cls-10" d="M839.44,215.2a2.89,2.89,0,0,1-.81-.15,3,3,0,0,1-1.87-3.73L847,180.45a3,3,0,1,1,5.61,1.86l-10.27,30.87A3,3,0,0,1,839.44,215.2Z"/><rect class="cls-11" x="913.42" y="501.14" width="170.25" height="170.25" rx="16.37" transform="translate(-72.33 145.77) rotate(-8.06)"/><rect class="cls-12" x="1001.61" y="579.22" width="13.74" height="150.23" transform="translate(1514.98 -435.92) rotate(81.94)"/><path class="cls-12" d="M1021.56,585.39,1010.45,507l-44.77,6.34,11.1,78.43-36.43,5.16,67.15,50.49L1058,580.23Z"/><rect class="cls-13" x="1136.69" y="889.23" width="170.25" height="170.25" rx="16.37" transform="translate(2274.3 2129.56) rotate(-170.91)"/><rect class="cls-12" x="1225.53" y="831.27" width="13.74" height="150.23" transform="translate(142.65 1980.06) rotate(-80.91)"/><path class="cls-12" d="M1280.56,981.37l-49.27-68.06-68,49.28,36.33,5.81-12.52,78.22,44.66,7.15,12.52-78.22Z"/><path class="cls-10" d="M808.36,1095.23H31Q15.87,1158.3.8,1221.37H838.53Q823.44,1158.31,808.36,1095.23Z"/><path class="cls-10" d="M51.53,640H787.8a20.57,20.57,0,0,1,20.57,20.57v434.63a0,0,0,0,1,0,0H31a0,0,0,0,1,0,0V660.6A20.57,20.57,0,0,1,51.53,640Z"/><rect class="cls-11" x="55.64" y="668.83" width="728.04" height="400.36" rx="20.64"/><circle class="cls-14" cx="419.66" cy="655.12" r="6.86"/><path class="cls-11" d="M.8,1221.37q1.37,11,2.74,21.94a19,19,0,0,0,4.65,9.06c5.57,6,13.14,6,14.54,6H816.59c1.4,0,9-.06,14.54-6a18.89,18.89,0,0,0,4.65-9.06q1.38-11,2.75-21.94Z"/><path class="cls-15" d="M137.24,209.33a2.84,2.84,0,0,1-5.17,0,88.81,88.81,0,0,0-43.44-43.59,2.83,2.83,0,0,1,.09-5.17,81.22,81.22,0,0,0,43.48-43.43,2.82,2.82,0,0,1,5.18-.07,86.88,86.88,0,0,0,43.53,43.36,2.84,2.84,0,0,1,0,5.17,87.17,87.17,0,0,0-43.68,43.7Z"/><path class="cls-15" d="M1639.24,345.33a2.84,2.84,0,0,1-5.17,0,88.81,88.81,0,0,0-43.44-43.59,2.83,2.83,0,0,1,.09-5.17,81.22,81.22,0,0,0,43.48-43.43,2.82,2.82,0,0,1,5.18-.07,86.88,86.88,0,0,0,43.53,43.36,2.84,2.84,0,0,1,0,5.17,87.17,87.17,0,0,0-43.68,43.7Z"/><path class="cls-10" d="M955.74,1022.83a2.84,2.84,0,0,1-5.17,0,88.81,88.81,0,0,0-43.44-43.59,2.83,2.83,0,0,1,.09-5.17,81.22,81.22,0,0,0,43.48-43.43,2.82,2.82,0,0,1,5.18-.07A86.88,86.88,0,0,0,999.41,974a2.84,2.84,0,0,1,0,5.17,87.17,87.17,0,0,0-43.68,43.7Z"/><path class="cls-10" d="M1192.24,374.33a2.84,2.84,0,0,1-5.17,0,88.81,88.81,0,0,0-43.44-43.59,2.83,2.83,0,0,1,.09-5.17,81.22,81.22,0,0,0,43.48-43.43,2.82,2.82,0,0,1,5.18-.07,86.88,86.88,0,0,0,43.53,43.36,2.84,2.84,0,0,1,0,5.17,87.17,87.17,0,0,0-43.68,43.7Z"/><path class="cls-10" d="M585.24,198.33a2.84,2.84,0,0,1-5.17,0,88.81,88.81,0,0,0-43.44-43.59,2.83,2.83,0,0,1,.09-5.17,81.22,81.22,0,0,0,43.48-43.43,2.82,2.82,0,0,1,5.18-.07,86.88,86.88,0,0,0,43.53,43.36,2.84,2.84,0,0,1,0,5.17,87.17,87.17,0,0,0-43.68,43.7Z"/><path class="cls-10" d="M1428.74,834.83a2.84,2.84,0,0,1-5.17,0,88.81,88.81,0,0,0-43.44-43.59,2.83,2.83,0,0,1,.09-5.17,81.22,81.22,0,0,0,43.48-43.43,2.82,2.82,0,0,1,5.18-.07A86.88,86.88,0,0,0,1472.41,786a2.84,2.84,0,0,1,0,5.17,87.17,87.17,0,0,0-43.68,43.7Z"/><rect class="cls-16" x="84.5" y="705.5" width="165" height="263.45" rx="8.82"/><path class="cls-9" d="M93.6,707H240.4a7.35,7.35,0,0,1,7.35,7.35v22a0,0,0,0,1,0,0H86.28a0,0,0,0,1,0,0v-22A7.35,7.35,0,0,1,93.6,707Z"/><path class="cls-17" d="M102,1124.22H61.34q1.68-8.92,3.38-17.83H102Z"/><ellipse class="cls-17" cx="127.89" cy="1115.3" rx="26.34" ry="12.6"/><ellipse class="cls-17" cx="172.44" cy="1115.3" rx="26.34" ry="12.6"/><ellipse class="cls-17" cx="216.99" cy="1115.3" rx="26.34" ry="12.6"/><ellipse class="cls-17" cx="261.53" cy="1115.3" rx="26.34" ry="12.6"/><ellipse class="cls-17" cx="306.08" cy="1115.3" rx="26.34" ry="12.6"/><ellipse class="cls-17" cx="350.63" cy="1115.3" rx="26.34" ry="12.6"/><path class="cls-17" d="M413.8,1124.22H376.55v-17.83h37.12Z"/><path class="cls-17" d="M732.92,1124.22h40.63q-1.68-8.92-3.38-17.83H732.92Z"/><ellipse class="cls-17" cx="707" cy="1115.3" rx="26.34" ry="12.6"/><ellipse class="cls-17" cx="662.45" cy="1115.3" rx="26.34" ry="12.6"/><ellipse class="cls-17" cx="617.9" cy="1115.3" rx="26.34" ry="12.6"/><ellipse class="cls-17" cx="573.36" cy="1115.3" rx="26.34" ry="12.6"/><ellipse class="cls-17" cx="528.81" cy="1115.3" rx="26.34" ry="12.6"/><ellipse class="cls-17" cx="484.26" cy="1115.3" rx="26.34" ry="12.6"/><ellipse class="cls-17" cx="439.72" cy="1115.3" rx="26.34" ry="12.6"/><path class="cls-17" d="M137.89,1159.57V1141H52.62q-1.75,9.29-3.53,18.58Z"/><ellipse class="cls-17" cx="164.91" cy="1150.28" rx="27.46" ry="13.14"/><ellipse class="cls-17" cx="211.35" cy="1150.28" rx="27.46" ry="13.14"/><ellipse class="cls-17" cx="257.78" cy="1150.28" rx="27.46" ry="13.14"/><ellipse class="cls-17" cx="304.22" cy="1150.27" rx="27.46" ry="13.14"/><ellipse class="cls-17" cx="350.66" cy="1150.27" rx="27.46" ry="13.14"/><path class="cls-17" d="M416.51,1159.56H377.68V1141h38.69Z"/><path class="cls-17" d="M749.16,1159.53h39.76q-1.65-9.3-3.31-18.58H749.16Z"/><ellipse class="cls-17" cx="722.15" cy="1150.25" rx="27.46" ry="13.14"/><ellipse class="cls-17" cx="675.71" cy="1150.25" rx="27.46" ry="13.14"/><ellipse class="cls-17" cx="629.27" cy="1150.25" rx="27.46" ry="13.14"/><ellipse class="cls-17" cx="582.84" cy="1150.26" rx="27.46" ry="13.14"/><ellipse class="cls-17" cx="536.4" cy="1150.26" rx="27.46" ry="13.14"/><ellipse class="cls-17" cx="489.96" cy="1150.26" rx="27.46" ry="13.14"/><ellipse class="cls-17" cx="443.53" cy="1150.26" rx="27.46" ry="13.14"/><path class="cls-17" d="M82.3,1194.27H38.67q1.81-9.57,3.64-19.14h40Z"/><ellipse class="cls-17" cx="110.12" cy="1184.7" rx="28.28" ry="13.53"/><ellipse class="cls-17" cx="157.94" cy="1184.7" rx="28.28" ry="13.53"/><ellipse class="cls-17" cx="205.77" cy="1184.7" rx="28.28" ry="13.53"/><ellipse class="cls-17" cx="253.59" cy="1184.7" rx="28.28" ry="13.53"/><path class="cls-17" d="M559.68,1194.25v-19.14l-278.27,0v19.13Z"/><path class="cls-17" d="M759.63,1194.23h41l-3.42-19.13h-37.6Z"/><ellipse class="cls-17" cx="731.8" cy="1184.67" rx="28.28" ry="13.53"/><ellipse class="cls-17" cx="683.98" cy="1184.67" rx="28.28" ry="13.53"/><ellipse class="cls-17" cx="636.16" cy="1184.67" rx="28.28" ry="13.53"/><ellipse class="cls-17" cx="588.34" cy="1184.67" rx="28.28" ry="13.53"/><circle class="cls-18" cx="743.5" cy="456.47" r="24.77"/><circle class="cls-4" cx="743.29" cy="457.04" r="8.55"/><circle class="cls-19" cx="1224.5" cy="707.47" r="24.77"/><circle class="cls-4" cx="1224.29" cy="708.04" r="8.55"/><circle class="cls-20" cx="1530.5" cy="684.47" r="24.77"/><circle class="cls-4" cx="1530.29" cy="685.04" r="8.55"/><circle class="cls-21" cx="1074.5" cy="222.47" r="24.77"/><circle class="cls-4" cx="1074.29" cy="223.04" r="8.55"/><rect class="cls-10" x="327.86" y="313.24" width="298" height="200" transform="translate(-62.8 86.24) rotate(-9.7)"/><rect class="cls-5" x="342.86" y="327.24" width="268" height="172" transform="translate(-62.8 86.24) rotate(-9.7)"/><g class="cls-22"><path class="cls-9" d="M389,403.6l-69.81,11.93,22.12-23.76,69.86-11.94Z"/><rect class="cls-9" x="324.32" y="409.09" width="70.82" height="67.31" transform="translate(-69.44 66.93) rotate(-9.7)"/><path class="cls-9" d="M389,403.6,411.15,380l10.72,62.72L400.3,470Z"/><path class="cls-12" d="M423.35,442.42l-10.72-62.73a.14.14,0,0,1,0-.06,1.59,1.59,0,0,0-.16-.51,1.49,1.49,0,0,0-1.57-.76L341,390.29a1.52,1.52,0,0,0-.84.46l-22.11,23.76,0,0a1.56,1.56,0,0,0-.23.34v0a1.6,1.6,0,0,0-.11.39s0,.06,0,.08a1.41,1.41,0,0,0,0,.41L329,482.13a1.51,1.51,0,0,0,1.48,1.25,1.15,1.15,0,0,0,.26,0l69.8-11.93h.05l.12,0,.18-.06.11-.06.17-.1.09-.08a.71.71,0,0,0,.15-.15l.06-.05,21.57-27.28A1.51,1.51,0,0,0,423.35,442.42ZM342,393.17l65-11.11-18.79,20.15-32.9,5.62-32,5.48Zm-10.3,87-10.83-63.38,33.42-5.71,33.43-5.72,5.41,31.7,5.42,31.69Zm69.49-13.77-5.14-30.1-5.5-32.19,19.61-20.91,10.1,59.1Z"/><path class="cls-9" d="M410.27,416.5l-6.69,7.23,41.4-7.07,4.9-6.93Z"/><ellipse class="cls-9" cx="425.12" cy="425.12" rx="29.7" ry="7.07" transform="translate(-65.54 77.69) rotate(-9.7)"/><path class="cls-12" d="M451.15,408.93a1.5,1.5,0,0,0-1.52-.68L410,415a1.52,1.52,0,0,0-.85.46l-6.69,7.23,0,.05a.48.48,0,0,0-.09.11,1.59,1.59,0,0,0-.13.22v0a1.94,1.94,0,0,0-.12.39.28.28,0,0,1,0,.09,1.8,1.8,0,0,0,0,.4l1.69,9.85a1.49,1.49,0,0,0,1.47,1.25l.26,0,41.4-7.08a1.45,1.45,0,0,0,1-.61,1.48,1.48,0,0,0,.25-1.12L446.56,417l4.55-6.42A1.49,1.49,0,0,0,451.15,408.93Zm-44.66,22.93-1.18-6.9,19.22-3.29,19.22-3.28,1.18,6.9Zm37.62-16.58-36.43,6.23L411,417.9l35.55-6.08Z"/><path class="cls-9" d="M491.48,386.08,421.67,398l22.11-23.76,69.86-11.94Z"/><rect class="cls-9" x="426.83" y="391.57" width="70.82" height="67.31" transform="translate(-65.03 83.94) rotate(-9.7)"/><path class="cls-9" d="M491.48,386.08l22.18-23.65,10.72,62.72-21.57,27.28Z"/><path class="cls-12" d="M525.86,424.9l-10.72-62.73a.14.14,0,0,0,0-.06,1.38,1.38,0,0,0-.16-.51,1.48,1.48,0,0,0-1.57-.76l-69.86,11.94a1.48,1.48,0,0,0-.85.45L420.57,397l0,0a1.56,1.56,0,0,0-.23.34v0a1.61,1.61,0,0,0-.12.39.28.28,0,0,1,0,.09,1.8,1.8,0,0,0,0,.4l11.34,66.34a1.5,1.5,0,0,0,1.47,1.25,1.15,1.15,0,0,0,.26,0l69.81-11.92,0,0,.12,0,.18-.06.12-.06.16-.1.1-.08.14-.14a.34.34,0,0,1,.06-.06l21.57-27.28A1.51,1.51,0,0,0,525.86,424.9Zm-81.33-49.25,65-11.11-18.8,20.15-32.9,5.62-32,5.48Zm-10.3,87L423.4,399.24l33.43-5.71,33.42-5.72,5.42,31.7,5.41,31.69Zm69.5-13.76-5.15-30.11-5.5-32.18,19.61-20.91,10.1,59.09Z"/><path class="cls-9" d="M512.78,399l-6.69,7.23,41.4-7.07,4.91-6.93Z"/><ellipse class="cls-9" cx="527.64" cy="407.6" rx="29.7" ry="7.07" transform="translate(-61.12 94.71) rotate(-9.7)"/><path class="cls-12" d="M553.67,391.42a1.48,1.48,0,0,0-1.53-.68l-39.61,6.76a1.59,1.59,0,0,0-.85.46L505,405.2l0,0-.09.11a1.59,1.59,0,0,0-.13.22v0a1.43,1.43,0,0,0-.11.39.28.28,0,0,0,0,.09,1.08,1.08,0,0,0,0,.4l1.68,9.85a1.5,1.5,0,0,0,1.48,1.25l.25,0,41.4-7.08a1.45,1.45,0,0,0,1-.61,1.53,1.53,0,0,0,.26-1.12l-1.58-9.24,4.54-6.42A1.5,1.5,0,0,0,553.67,391.42ZM509,414.34l-1.17-6.9,19.22-3.29,19.22-3.28,1.18,6.9Zm37.63-16.58L510.19,404l3.35-3.61,35.54-6.08Z"/><path class="cls-9" d="M594,368.56l-69.81,11.93,22.11-23.76,69.87-11.94Z"/><rect class="cls-9" x="529.35" y="374.05" width="70.82" height="67.31" transform="translate(-60.61 100.96) rotate(-9.7)"/><path class="cls-9" d="M594,368.56l22.19-23.65,10.72,62.72-21.57,27.28Z"/><path class="cls-12" d="M628.38,407.38l-10.72-62.72,0-.07a1.57,1.57,0,0,0-.15-.51,1.5,1.5,0,0,0-1.58-.76L546,355.26a1.45,1.45,0,0,0-.84.45l-22.12,23.76s0,0,0,0a1.56,1.56,0,0,0-.23.34v0a1.25,1.25,0,0,0-.11.39.28.28,0,0,0,0,.09,1.34,1.34,0,0,0,0,.4h0L534,447.09a1.51,1.51,0,0,0,1.48,1.25l.25,0,69.81-11.93,0,0a.42.42,0,0,0,.12,0l.19-.06.11-.06.16-.1.1-.08.15-.14,0-.06,21.57-27.28A1.48,1.48,0,0,0,628.38,407.38Zm-81.33-49.25L612,347l-18.79,20.15-32.91,5.62-32,5.48Zm-10.3,87-10.84-63.39L559.34,376l33.42-5.72,5.42,31.7,5.42,31.69Zm69.49-13.77-5.15-30.11-5.5-32.18,19.62-20.91,10.1,59.09Z"/></g><rect class="cls-10" x="281.63" y="780.94" width="468.65" height="263.38" rx="14.86"/><rect class="cls-23" x="281.63" y="780.94" width="468.65" height="263.38" rx="14.86"/><path class="cls-9" d="M295.84,782.75H736.16a12.39,12.39,0,0,1,12.39,12.39v17a0,0,0,0,1,0,0H283.45a0,0,0,0,1,0,0v-17A12.39,12.39,0,0,1,295.84,782.75Z"/></g></svg>