<svg xmlns="http://www.w3.org/2000/svg" xmlns:xlink="http://www.w3.org/1999/xlink" viewBox="0 0 1170 1060"><defs><style>.cls-1{fill:#46679e;}.cls-2{fill:#2a5090;}.cls-3{fill:#184186;}.cls-4{fill:#f4c745;}.cls-5{fill:#dda417;}.cls-6{fill:#e9ebef;}.cls-7{fill:#64c2d1;}.cls-8{fill:#4f4f4f;}.cls-9{fill:#6097c9;}.cls-10{fill:#fff;}.cls-11{fill:url(#radial-gradient);}.cls-12{fill:url(#radial-gradient-2);}.cls-13{fill:url(#radial-gradient-3);}.cls-14{fill:url(#radial-gradient-4);}</style><radialGradient id="radial-gradient" cx="729.36" cy="181.36" r="24.77" gradientUnits="userSpaceOnUse"><stop offset="0" stop-color="#fff" stop-opacity="0.5"/><stop offset="1" stop-color="#e9ebef" stop-opacity="0"/></radialGradient><radialGradient id="radial-gradient-2" cx="790.64" cy="745.59" r="24.77" xlink:href="#radial-gradient"/><radialGradient id="radial-gradient-3" cx="265.59" cy="775.58" r="24.77" xlink:href="#radial-gradient"/><radialGradient id="radial-gradient-4" cx="239.96" cy="377.46" r="24.77" xlink:href="#radial-gradient"/></defs><g id="Layer_3" data-name="Layer 3"><path class="cls-1" d="M455.33,1053.09c-61.58,0-122.67-11.84-176.68-34.22-62-25.72-111.56-64.34-143.19-111.68-27.63-41.35-31.29-74.62-34.24-101.35C98.79,783.7,96,758.6,75.56,706.46c-9.47-24.12-18-41.63-25.44-57.08-14.9-30.76-29-59.78-36.15-108C4.47,477.56,11.4,412.11,34.55,346.8A415.5,415.5,0,0,1,95.44,234.33a458,458,0,0,1,75.18-77.51c49.5-40.41,95.3-61.61,112.7-68.84,83-34.52,172-39.68,217.71-39.68l4.72,0c16.06.07,29.33.8,40,1.39,9,.49,16.14.88,23.43.88A204.33,204.33,0,0,0,594.23,49c28.37-3.45,40.85-9,58.11-16.71,17.44-7.78,41.31-18.43,74.77-23.05A247,247,0,0,1,760.8,6.91C818,6.91,876.08,26.25,933.56,64.4c47.34,31.42,85.24,69.89,108.69,96.63,25.61,29.2,72.51,91.9,98.94,183.76,35,121.49,12.7,221.78,3.2,264.6q-.5,2.22-1.05,4.8l0,.21c-7,31.78-21.46,97.89-52.49,163.52-21.81,46.14-48.23,84.13-78.5,112.93-31.89,30.34-68.4,50.93-108.51,61.2a220,220,0,0,1-56.06,6.78c-11.18,0-21.83-.68-31.23-1.28-9.09-.58-17.66-1.13-26.61-1.13a213.45,213.45,0,0,0-47,5.41c-32.06,7.09-46.27,15.8-67.78,29-19,11.68-42.73,26.2-77.21,38.61C554.83,1044.91,505.54,1053.09,455.33,1053.09Z"/><path class="cls-2" d="M455.33,1007.58c-55.65,0-110.72-10.63-159.25-30.75-53.71-22.26-96.17-55.09-122.79-94.93-21.45-32.09-24.06-55.87-26.83-81-2.61-23.73-5.86-53.26-28.54-111-10.11-25.78-19-44.14-26.86-60.34C77.15,600.8,65.14,576,59,534.64,50.59,478.3,56.8,420.22,77.44,362,132.5,206.7,273.16,141.49,300.79,130,376.5,98.51,458.75,93.81,501,93.81h4.49c14.91.07,27,.73,37.72,1.32,9.33.52,17.38,1,25.93,1a248,248,0,0,0,30.54-1.95c35.17-4.27,52.66-12.07,71.17-20.32,16.59-7.4,35.4-15.79,62.46-19.53a200.64,200.64,0,0,1,27.46-1.88C870.13,52.42,962.63,139.27,1008,191c23.11,26.34,65.45,83,89.43,166.33,31.74,110.37,11.25,202.72,2.51,242.16q-.53,2.36-1.13,5.13c-6.61,30.14-20.35,92.85-49.18,153.8C1010.66,841,957.78,891.25,892.5,908a176.09,176.09,0,0,1-44.77,5.36c-9.73,0-19.19-.61-28.34-1.2-9.39-.6-19.1-1.22-29.5-1.22A257.14,257.14,0,0,0,733,917.4c-39.52,8.73-59.1,20.73-81.76,34.63-18.16,11.13-38.74,23.76-68.82,34.58C544.31,1000.33,500.35,1007.58,455.33,1007.58Z"/><path class="cls-3" d="M318.27,172C302,178.8,170.4,236,120.33,377.21c-7,19.74-27.09,78.52-16.34,150.73,8.23,55.26,27.66,72.32,56.29,145.27,47.11,120,18.48,135,50.85,183.41,63.36,94.82,235.26,130.57,355.92,87.17,62-22.31,76-53.11,156.17-70.83,79.81-17.63,111.76,2.76,158-9.08,125-32,163.33-224.62,174.33-274.2,9.28-41.86,26.16-122.48-1.82-219.73-23.94-83.23-68.41-135.81-79.9-148.91-18-20.51-120.49-137.38-234.25-121.66-47.29,6.53-59.85,30.91-134.38,40-41.48,5-59.89.18-99.88,0C486.28,139.24,398.06,138.83,318.27,172Z"/><circle class="cls-4" cx="646.11" cy="368.21" r="68.99"/><path class="cls-5" d="M646.11,310.57a57.64,57.64,0,1,1-57.64,57.64,57.69,57.69,0,0,1,57.64-57.64m0-4.82a62.46,62.46,0,1,0,62.45,62.46,62.45,62.45,0,0,0-62.45-62.46Z"/><circle class="cls-4" cx="817.27" cy="583.21" r="45.69"/><path class="cls-5" d="M817.27,545a38.17,38.17,0,1,1-38.17,38.17A38.21,38.21,0,0,1,817.27,545m0-3.19a41.36,41.36,0,1,0,41.37,41.36,41.36,41.36,0,0,0-41.37-41.36Z"/><rect class="cls-6" x="332.09" y="265.25" width="300.23" height="538.44" rx="14.44"/><path class="cls-7" d="M616.87,265.17l-269.63.15A15.29,15.29,0,0,0,332,280.62v18l300.23-.16v-18A15.31,15.31,0,0,0,616.87,265.17Z"/><rect class="cls-7" x="353.67" y="319.37" width="250.44" height="145.41" rx="11.77"/><rect class="cls-8" x="372.73" y="712.77" width="220.54" height="47.68" rx="6.76"/><rect class="cls-7" x="364.67" y="501.17" width="231.47" height="28.81"/><rect class="cls-7" x="364.69" y="547.86" width="231.47" height="28.81"/><rect class="cls-7" x="365.71" y="599.52" width="231.47" height="28.81"/><polygon class="cls-9" points="581.66 788.74 565.04 761.64 548.42 734.53 580.2 733.69 611.98 732.85 602.22 750.83 616.41 758.39 605.76 778.38 591.42 770.75 581.66 788.74"/><polygon class="cls-9" points="654.43 517.64 691.78 453.71 729.12 389.76 765.82 454.08 802.53 518.38 754.87 518.13 754.96 555.57 702.2 555.71 702.1 517.88 654.43 517.64"/><polygon class="cls-7" points="912.05 370.09 874.7 434.02 837.36 497.97 800.66 433.65 763.95 369.35 811.62 369.59 811.52 332.15 864.28 332.01 864.38 369.84 912.05 370.09"/><path class="cls-10" d="M414.27,409.55a13.14,13.14,0,0,1-5.46-5.13,14.87,14.87,0,0,1-1.92-7.62V382.94a14.87,14.87,0,0,1,1.92-7.62,13,13,0,0,1,5.46-5.1,17.9,17.9,0,0,1,8.22-1.8,18.35,18.35,0,0,1,8.13,1.71,12.91,12.91,0,0,1,5.46,4.86,13.56,13.56,0,0,1,1.95,7.29q0,.54-.72.66l-7,.42h-.12q-.6,0-.6-.66a6.83,6.83,0,0,0-1.95-5.1,7,7,0,0,0-5.13-1.92,7.08,7.08,0,0,0-5.19,1.92,6.83,6.83,0,0,0-1.95,5.1v14.46a6.76,6.76,0,0,0,1.95,5,7.08,7.08,0,0,0,5.19,1.92,7,7,0,0,0,5.13-1.92,6.76,6.76,0,0,0,1.95-5q0-.66.72-.66l7,.3a.76.76,0,0,1,.51.18.54.54,0,0,1,.21.42,13.72,13.72,0,0,1-1.95,7.32,13,13,0,0,1-5.46,4.92,18.08,18.08,0,0,1-8.13,1.74A17.66,17.66,0,0,1,414.27,409.55Z"/><path class="cls-10" d="M450.9,409.64a13.8,13.8,0,0,1-5.55-5.37,15.69,15.69,0,0,1-2-7.95V383.48a15.4,15.4,0,0,1,2-7.86,13.66,13.66,0,0,1,5.55-5.31,19.08,19.08,0,0,1,16.56,0,13.66,13.66,0,0,1,5.55,5.31,15.4,15.4,0,0,1,2,7.86v12.84a15.85,15.85,0,0,1-2,8,13.54,13.54,0,0,1-5.55,5.37,17.51,17.51,0,0,1-8.31,1.89A17.15,17.15,0,0,1,450.9,409.64Zm13.59-7.44a7.67,7.67,0,0,0,2-5.58v-13.2a7.84,7.84,0,0,0-2-5.61,7,7,0,0,0-5.37-2.13,7,7,0,0,0-5.31,2.13,7.84,7.84,0,0,0-2,5.61v13.2a7.73,7.73,0,0,0,2,5.58,7,7,0,0,0,5.31,2.1A7.11,7.11,0,0,0,464.49,402.2Z"/><path class="cls-10" d="M505.8,369.11a.69.69,0,0,1,.51-.21h7a.72.72,0,0,1,.72.72v40.56a.72.72,0,0,1-.72.72h-6.78a.86.86,0,0,1-.84-.48l-15.54-25.68q-.12-.18-.24-.15t-.12.27l.12,25.32a.72.72,0,0,1-.72.72h-7a.72.72,0,0,1-.72-.72V369.62a.72.72,0,0,1,.72-.72H489a.86.86,0,0,1,.84.48l15.48,25.56q.12.18.24.15t.12-.27l-.06-25.2A.69.69,0,0,1,505.8,369.11Z"/><path class="cls-10" d="M519.57,410.66q-.18-.24.06-.6l11.64-20a.3.3,0,0,0,0-.36l-11.64-20-.12-.36q0-.48.66-.48h7.62a1,1,0,0,1,.9.48l7.8,13.74q.18.36.36,0l7.8-13.74a1,1,0,0,1,.9-.48h7.56a.7.7,0,0,1,.6.24q.18.24-.06.6l-11.64,20a.55.55,0,0,0,0,.36l11.64,20,.12.36q0,.48-.66.48h-7.56a1,1,0,0,1-.9-.48l-7.8-13.68q-.18-.36-.36,0l-7.86,13.68a1,1,0,0,1-.9.48h-7.56A.7.7,0,0,1,519.57,410.66Z"/><circle class="cls-11" cx="729.36" cy="181.36" r="24.77"/><circle class="cls-3" cx="729.15" cy="181.93" r="8.55"/><circle class="cls-12" cx="790.64" cy="745.59" r="24.77"/><circle class="cls-3" cx="790.43" cy="746.15" r="8.55"/><circle class="cls-13" cx="265.59" cy="775.58" r="24.77"/><circle class="cls-3" cx="265.38" cy="776.14" r="8.55"/><circle class="cls-14" cx="239.96" cy="377.46" r="24.77"/><circle class="cls-3" cx="239.75" cy="378.03" r="8.55"/><path class="cls-6" d="M858.52,247.84a1.93,1.93,0,0,1-3.52,0,60.59,60.59,0,0,0-29.61-29.71,1.93,1.93,0,0,1,.06-3.53A55.28,55.28,0,0,0,855.08,185a1.93,1.93,0,0,1,3.54-.05,59.21,59.21,0,0,0,29.66,29.56,1.93,1.93,0,0,1,0,3.52,59.48,59.48,0,0,0-29.77,29.79Z"/><path class="cls-6" d="M935.89,719.45a1.94,1.94,0,0,1-3.53,0,60.48,60.48,0,0,0-29.61-29.71,1.93,1.93,0,0,1,.07-3.53,55.37,55.37,0,0,0,29.63-29.6,1.93,1.93,0,0,1,3.53,0,59.18,59.18,0,0,0,29.67,29.56,1.93,1.93,0,0,1,0,3.52,59.48,59.48,0,0,0-29.77,29.79Z"/><path class="cls-6" d="M418.57,228.89a1.93,1.93,0,0,1-3.52,0,60.63,60.63,0,0,0-29.62-29.72,1.93,1.93,0,0,1,.07-3.52,55.36,55.36,0,0,0,29.63-29.6,1.93,1.93,0,0,1,3.54,0A59.19,59.19,0,0,0,429,181.68a60,60,0,0,0,19.29,13.9,1.92,1.92,0,0,1,0,3.51,59.45,59.45,0,0,0-29.77,29.8Z"/><path class="cls-6" d="M436.91,901.62a1.93,1.93,0,0,1-3.52,0,60.59,60.59,0,0,0-29.61-29.71,1.92,1.92,0,0,1,.06-3.52,55.43,55.43,0,0,0,29.64-29.6,1.92,1.92,0,0,1,3.53,0,59.22,59.22,0,0,0,29.67,29.55,1.93,1.93,0,0,1,0,3.52,59.45,59.45,0,0,0-29.78,29.79Z"/><path class="cls-6" d="M193.93,517a1.94,1.94,0,0,1-3.53,0,60.59,60.59,0,0,0-29.61-29.71,1.92,1.92,0,0,1,.06-3.52,55.43,55.43,0,0,0,29.64-29.6,1.92,1.92,0,0,1,3.53-.05,59.28,59.28,0,0,0,29.67,29.56,1.93,1.93,0,0,1,0,3.51A59.48,59.48,0,0,0,193.93,517Z"/></g></svg>