<svg id="Layer_1" data-name="Layer 1" xmlns="http://www.w3.org/2000/svg" viewBox="0 0 500 500"><defs><style>.cls-1{fill:#f4c745}.cls-2{fill:#dda417}.cls-4{fill:#64c2d1}.cls-6{fill:none;stroke:#dda417;stroke-linecap:round;stroke-miterlimit:10;stroke-width:4.21px}</style></defs><circle class="cls-1" cx="269.4" cy="232.7" r="19.6"/><path class="cls-2" d="M269.4 216.2a16.5 16.5 0 11-16.5 16.5 16.5 16.5 0 0116.5-16.5m0-1.3a17.8 17.8 0 1017.7 17.8 17.7 17.7 0 00-17.7-17.8z"/><rect x="108.6" y="142.2" width="154.5" height="277.1" rx="14.4" transform="rotate(-7.5 185.4188 280.2984)" fill="#e9ebef"/><path class="cls-4" d="M233.3 134.8L102.2 152a11.1 11.1 0 00-9.6 12.5l.8 6 153.2-20.2-.8-5.9a11.1 11.1 0 00-12.5-9.6z"/><rect class="cls-4" x="110.2" y="170.9" width="128.9" height="74.83" rx="11.8" transform="rotate(-7.5 174.0489 208.3031)"/><rect x="143" y="371.6" width="113.5" height="24.54" rx="6.8" transform="rotate(-7.5 199.3658 383.1078)" fill="#4f4f4f"/><path class="cls-4" transform="rotate(-7.5 182.9674 270.9442)" d="M124.1 263.9h119.1v14.83H124.1z"/><path class="cls-4" transform="rotate(-7.5 186.7573 294.9426)" d="M127.2 287.7h119.1v14.83H127.2z"/><path class="cls-4" transform="rotate(-7.5 190.3973 321.2296)" d="M131.2 314h119.1v14.83H131.2z"/><circle class="cls-1" cx="325.3" cy="142.8" r="50.3"/><path class="cls-2" d="M325.3 100.9a42 42 0 11-42 41.9 42 42 0 0142-41.9m0-3.6a45.5 45.5 0 1045.5 45.5 45.5 45.5 0 00-45.5-45.5z"/><g><path class="cls-6" d="M352.3 73.5v17M375.7 84l-10.9 12.9M389.2 105.9l-16.7 3"/></g><g><circle class="cls-1" cx="378.2" cy="239.6" r="29.3"/><path class="cls-2" d="M378.2 215.1a24.5 24.5 0 11-24.5 24.5 24.5 24.5 0 0124.5-24.5m0-2a26.5 26.5 0 1026.5 26.5 26.6 26.6 0 00-26.5-26.5z"/></g><path fill="#6097c9" d="M298.9 393.8l-28.5-46.5-28.6-46.6 54.6-1.4 54.6-1.5-16.7 30.9 24.4 13-18.3 34.3-24.7-13.1-16.8 30.9z"/></svg>