<svg id="Layer_1" data-name="Layer 1" xmlns="http://www.w3.org/2000/svg" viewBox="0 0 500 500"><defs><style>.cls-1{fill:#e9ebef}.cls-2{fill:#64c2d1}</style></defs><path class="cls-1" d="M55.5 65.8h370.3v73.82H55.5zM98.5 195.5h346v73.82h-346zM55.5 327.2h389.1v73.82H55.5z"/><path class="cls-2" d="M152.5 117.3l-15.4 26.1-15.3 26.1-15-26.3-14.9-26.3 19.5.1v-15.3H133v15.5l19.5.1z"/><path fill="#6097c9" stroke="#f4c745" stroke-miterlimit="10" stroke-width="8" d="M416.8 242.2L386 294.6l-30.9 52.5-30-52.9-30-53 39.2.3v-30.7h43.3v31.1l39.2.3z"/><path class="cls-2" d="M194.5 361.8L173.3 398 152 434.2l-20.7-36.5-20.8-36.5 27.1.2v-21.3h29.9v21.5l27 .2z"/></svg>